<svg width="24" height="24" viewBox="0 0 24 24" fill="none" xmlns="http://www.w3.org/2000/svg">
<path d="M12 1.33691C5.659 1.33691 0.5 5.58691 0.5 10.8109C0.519552 12.0667 0.813936 13.303 1.36246 14.4329C1.91098 15.5628 2.70032 16.5588 3.675 17.3509L1.375 21.9379C1.32841 22.0308 1.3119 22.1359 1.32779 22.2386C1.34367 22.3412 1.39115 22.4364 1.46363 22.5109C1.5361 22.5853 1.62998 22.6354 1.7322 22.654C1.83442 22.6727 1.9399 22.659 2.034 22.6149L8.183 19.7529C9.42391 20.1093 10.7089 20.2888 12 20.2859C18.341 20.2859 23.5 16.0359 23.5 10.8109C23.5 5.58591 18.341 1.33691 12 1.33691Z" fill="#FF4066"/>
</svg>
