<svg width="795" height="772" viewBox="0 0 795 772" fill="none" xmlns="http://www.w3.org/2000/svg">
<g clip-path="url(#clip0_140_257)">
<path d="M343.264 719.79C265.895 797.159 140.456 797.158 63.0879 719.79V719.79C-14.2805 642.422 -14.2805 516.983 63.0879 439.614L437.614 65.088C514.983 -12.2804 640.422 -12.2804 717.79 65.088V65.088C795.158 142.456 795.158 267.895 717.79 345.264L343.264 719.79Z" fill="#FF4066"/>
<path d="M509.053 128.994L510.923 140.344C512.595 150.496 520.552 158.452 530.703 160.125L542.053 161.994L530.703 163.864C520.552 165.536 512.595 173.492 510.923 183.644L509.053 194.994L507.184 183.644C505.512 173.492 497.555 165.536 487.404 163.864L476.053 161.994L487.404 160.125C497.555 158.452 505.512 150.496 507.184 140.344L509.053 128.994Z" fill="black"/>
<path fill-rule="evenodd" clip-rule="evenodd" d="M787.053 308.994C787.053 307.998 787.043 307.004 787.022 306.012L786.023 306.033C786.043 307.018 786.053 308.005 786.053 308.994H787.053ZM787.022 311.976L786.023 311.955C785.981 313.93 785.899 315.895 785.776 317.849L786.774 317.912C786.898 315.944 786.981 313.965 787.022 311.976ZM786.277 323.83L785.282 323.726C785.075 325.69 784.827 327.642 784.54 329.58L785.529 329.727C785.819 327.774 786.068 325.809 786.277 323.83ZM784.531 335.589L783.549 335.401C783.176 337.339 782.763 339.263 782.311 341.171L783.284 341.402C783.739 339.479 784.155 337.542 784.531 335.589ZM781.79 347.154L780.827 346.882C780.291 348.78 779.715 350.661 779.101 352.524L780.051 352.837C780.67 350.96 781.249 349.066 781.79 347.154ZM778.071 358.44L777.136 358.087C776.44 359.93 775.706 361.755 774.934 363.56L775.854 363.953C776.631 362.135 777.37 360.297 778.071 358.44ZM773.403 369.368L772.501 368.936C771.65 370.713 770.762 372.47 769.839 374.204L770.722 374.674C771.652 372.927 772.546 371.158 773.403 369.368ZM767.818 379.861L766.956 379.354C765.958 381.051 764.925 382.726 763.858 384.376L764.697 384.919C765.772 383.257 766.813 381.571 767.818 379.861ZM761.365 389.84L760.549 389.262C759.411 390.868 758.24 392.449 757.036 394.004L757.827 394.616C759.039 393.05 760.219 391.458 761.365 389.84ZM754.09 399.238L753.326 398.593C752.057 400.097 750.756 401.574 749.425 403.022L750.162 403.698C751.502 402.24 752.812 400.753 754.09 399.238ZM746.048 407.989L745.341 407.282C743.95 408.673 742.53 410.035 741.081 411.366L741.758 412.102C743.217 410.762 744.647 409.39 746.048 407.989ZM737.298 416.031L736.653 415.267C735.15 416.535 733.62 417.772 732.063 418.977L732.676 419.767C734.243 418.554 735.784 417.308 737.298 416.031ZM727.9 423.305L727.322 422.489C725.718 423.626 724.089 424.729 722.435 425.798L722.979 426.638C724.644 425.561 726.284 424.45 727.9 423.305ZM717.92 429.759L717.413 428.897C715.719 429.893 714.002 430.855 712.264 431.78L712.733 432.663C714.485 431.731 716.214 430.762 717.92 429.759ZM707.427 435.343L706.995 434.441C705.224 435.289 703.432 436.101 701.62 436.875L702.013 437.795C703.838 437.015 705.643 436.197 707.427 435.343ZM696.499 440.012L696.146 439.077C694.31 439.77 692.456 440.425 690.584 441.042L690.897 441.992C692.782 441.371 694.65 440.71 696.499 440.012ZM685.214 443.73L684.942 442.768C683.054 443.302 681.15 443.796 679.23 444.251L679.461 445.224C681.394 444.766 683.312 444.268 685.214 443.73ZM673.649 446.471L673.46 445.489C671.534 445.86 669.593 446.19 667.64 446.48L667.787 447.47C669.754 447.177 671.709 446.844 673.649 446.471ZM661.89 448.217L661.785 447.223C659.838 447.428 657.879 447.593 655.908 447.717L655.971 448.715C657.955 448.59 659.928 448.424 661.89 448.217ZM650.035 448.963L650.014 447.963C649.03 447.984 648.043 447.994 647.053 447.994V448.994C648.05 448.994 649.044 448.984 650.035 448.963ZM644.072 448.963L644.092 447.963C642.117 447.922 640.153 447.84 638.199 447.717L638.136 448.715C640.104 448.838 642.083 448.921 644.072 448.963ZM632.217 448.217L632.322 447.223C630.358 447.016 628.406 446.768 626.467 446.48L626.32 447.47C628.273 447.759 630.239 448.009 632.217 448.217ZM620.458 446.471L620.647 445.489C618.709 445.117 616.785 444.704 614.876 444.251L614.646 445.224C616.568 445.68 618.506 446.096 620.458 446.471ZM608.893 443.73L609.165 442.768C607.268 442.232 605.387 441.656 603.523 441.042L603.21 441.992C605.087 442.61 606.982 443.19 608.893 443.73ZM597.607 440.012L597.961 439.077C596.117 438.38 594.292 437.646 592.487 436.875L592.094 437.795C593.913 438.571 595.751 439.311 597.607 440.012ZM586.68 435.343L587.112 434.441C585.334 433.591 583.578 432.703 581.843 431.78L581.374 432.663C583.121 433.593 584.89 434.486 586.68 435.343ZM576.187 429.759L576.694 428.897C574.996 427.899 573.322 426.866 571.671 425.798L571.128 426.638C572.791 427.713 574.477 428.754 576.187 429.759ZM566.207 423.305L566.785 422.489C565.179 421.351 563.598 420.18 562.043 418.977L561.431 419.767C562.997 420.98 564.589 422.159 566.207 423.305ZM556.809 416.031L557.454 415.267C555.951 413.997 554.474 412.697 553.026 411.366L552.349 412.102C553.808 413.443 555.295 414.753 556.809 416.031ZM548.058 407.989L548.766 407.282C547.375 405.891 546.013 404.471 544.681 403.022L543.945 403.698C545.286 405.158 546.657 406.588 548.058 407.989ZM540.017 399.238L540.781 398.593C539.513 397.09 538.276 395.56 537.071 394.004L536.28 394.616C537.493 396.184 538.739 397.725 540.017 399.238ZM532.742 389.84L533.558 389.262C532.422 387.658 531.318 386.029 530.249 384.376L529.41 384.919C530.486 386.584 531.598 388.225 532.742 389.84ZM526.288 379.861L527.15 379.354C526.154 377.66 525.193 375.943 524.268 374.204L523.385 374.674C524.317 376.425 525.285 378.155 526.288 379.861ZM520.704 369.368L521.606 368.936C520.758 367.165 519.947 365.372 519.173 363.56L518.253 363.953C519.033 365.778 519.85 367.584 520.704 369.368ZM516.036 358.44L516.971 358.087C516.278 356.251 515.622 354.396 515.006 352.524L514.056 352.837C514.677 354.723 515.337 356.591 516.036 358.44ZM512.317 347.154L513.28 346.882C512.746 344.995 512.251 343.091 511.796 341.171L510.823 341.402C511.282 343.335 511.78 345.253 512.317 347.154ZM509.576 335.589L510.558 335.4C510.188 333.474 509.857 331.534 509.567 329.58L508.578 329.727C508.87 331.695 509.203 333.649 509.576 335.589ZM507.83 323.83L508.825 323.726C508.62 321.778 508.455 319.819 508.331 317.849L507.333 317.912C507.458 319.896 507.624 321.869 507.83 323.83ZM507.085 311.976L508.084 311.955C508.064 310.971 508.053 309.984 508.053 308.994H507.053C507.053 309.991 507.064 310.985 507.085 311.976ZM786.774 300.077C786.649 298.092 786.483 296.119 786.277 294.158L785.282 294.263C785.487 296.21 785.652 298.169 785.776 300.139L786.774 300.077ZM785.529 288.261L784.54 288.408C784.25 286.454 783.919 284.514 783.549 282.588L784.531 282.399C784.904 284.339 785.237 286.293 785.529 288.261ZM783.284 276.587L782.311 276.817C781.856 274.898 781.361 272.994 780.827 271.106L781.79 270.834C782.327 272.735 782.825 274.653 783.284 276.587ZM780.051 265.151L779.101 265.464C778.485 263.592 777.829 261.737 777.136 259.901L778.071 259.548C778.77 261.397 779.43 263.265 780.051 265.151ZM775.854 254.035L774.934 254.428C774.16 252.616 773.349 250.824 772.501 249.052L773.403 248.62C774.257 250.405 775.074 252.21 775.854 254.035ZM770.722 243.314L769.839 243.784C768.914 242.045 767.953 240.328 766.956 238.634L767.818 238.128C768.822 239.834 769.79 241.563 770.722 243.314ZM764.697 233.069L763.858 233.612C762.788 231.959 761.685 230.33 760.549 228.726L761.365 228.148C762.509 229.763 763.621 231.404 764.697 233.069ZM757.827 223.372L757.036 223.984C755.831 222.428 754.594 220.898 753.326 219.395L754.09 218.75C755.368 220.264 756.613 221.805 757.827 223.372ZM750.162 214.29L749.425 214.967C748.094 213.518 746.732 212.097 745.341 210.706L746.048 209.999C747.449 211.4 748.821 212.831 750.162 214.29ZM741.758 205.886L741.081 206.622C739.633 205.291 738.156 203.991 736.653 202.722L737.298 201.957C738.812 203.236 740.299 204.546 741.758 205.886ZM732.676 198.221L732.063 199.012C730.509 197.808 728.928 196.637 727.322 195.499L727.9 194.683C729.517 195.829 731.11 197.009 732.676 198.221ZM722.979 191.35L722.435 192.19C720.785 191.123 719.111 190.089 717.413 189.091L717.92 188.229C719.63 189.235 721.316 190.275 722.979 191.35ZM712.733 185.326L712.264 186.208C710.529 185.285 708.773 184.398 706.995 183.547L707.427 182.645C709.217 183.502 710.986 184.396 712.733 185.326ZM702.013 180.194L701.62 181.113C699.815 180.342 697.99 179.608 696.146 178.912L696.5 177.976C698.356 178.677 700.194 179.417 702.013 180.194ZM690.897 175.996L690.584 176.946C688.72 176.332 686.839 175.757 684.942 175.22L685.214 174.258C687.125 174.798 689.02 175.378 690.897 175.996ZM679.461 172.764L679.231 173.737C677.322 173.285 675.398 172.872 673.46 172.499L673.649 171.517C675.601 171.892 677.539 172.308 679.461 172.764ZM667.787 170.519L667.64 171.508C665.701 171.22 663.749 170.972 661.785 170.765L661.89 169.771C663.868 169.979 665.834 170.229 667.787 170.519ZM655.971 169.274L655.908 170.272C653.954 170.149 651.99 170.066 650.014 170.025L650.035 169.025C652.024 169.067 654.003 169.15 655.971 169.274ZM647.053 168.994C646.057 168.994 645.063 169.005 644.072 169.025L644.093 170.025C645.077 170.004 646.064 169.994 647.053 169.994V168.994ZM638.136 169.274C636.152 169.398 634.178 169.564 632.217 169.771L632.322 170.765C634.269 170.56 636.228 170.395 638.199 170.272L638.136 169.274ZM626.32 170.519L626.467 171.508C624.514 171.798 622.573 172.129 620.647 172.499L620.458 171.517C622.398 171.144 624.353 170.811 626.32 170.519ZM614.646 172.764L614.876 173.737C612.957 174.192 611.053 174.687 609.165 175.22L608.893 174.258C610.795 173.721 612.712 173.222 614.646 172.764ZM603.21 175.996L603.523 176.946C601.651 177.563 599.797 178.218 597.961 178.912L597.607 177.976C599.457 177.278 601.325 176.618 603.21 175.996ZM592.094 180.194L592.487 181.113C590.675 181.887 588.883 182.699 587.112 183.547L586.68 182.645C588.464 181.791 590.269 180.973 592.094 180.194ZM581.374 185.325L581.843 186.208C580.105 187.134 578.388 188.095 576.694 189.091L576.187 188.229C577.893 187.226 579.622 186.258 581.374 185.325ZM571.128 191.35L571.671 192.19C570.018 193.259 568.389 194.362 566.785 195.499L566.207 194.683C567.823 193.538 569.463 192.427 571.128 191.35ZM561.431 198.221L562.043 199.012C560.487 200.216 558.957 201.453 557.454 202.722L556.809 201.957C558.323 200.68 559.864 199.434 561.431 198.221ZM552.349 205.886L553.026 206.622C551.577 207.954 550.157 209.315 548.766 210.706L548.059 209.999C549.46 208.598 550.89 207.227 552.349 205.886ZM543.945 214.29L544.682 214.966C543.351 216.415 542.05 217.891 540.781 219.395L540.017 218.75C541.295 217.235 542.605 215.748 543.945 214.29ZM536.28 223.372L537.071 223.984C535.867 225.539 534.696 227.12 533.558 228.726L532.742 228.148C533.888 226.53 535.068 224.938 536.28 223.372ZM529.41 233.069L530.249 233.612C529.182 235.263 528.149 236.937 527.15 238.634L526.288 238.127C527.294 236.418 528.335 234.731 529.41 233.069ZM523.385 243.314L524.268 243.784C523.344 245.519 522.457 247.275 521.606 249.052L520.704 248.62C521.561 246.83 522.455 245.061 523.385 243.314ZM518.253 254.035L519.173 254.428C518.401 256.233 517.667 258.058 516.971 259.901L516.036 259.548C516.737 257.691 517.476 255.853 518.253 254.035ZM514.056 265.151L515.006 265.464C514.392 267.327 513.816 269.208 513.28 271.106L512.317 270.834C512.858 268.923 513.437 267.028 514.056 265.151ZM510.823 276.586L511.796 276.817C511.344 278.726 510.931 280.65 510.558 282.588L509.576 282.399C509.952 280.447 510.368 278.509 510.823 276.586ZM508.578 288.261L509.567 288.408C509.279 290.347 509.032 292.299 508.825 294.263L507.83 294.158C508.039 292.18 508.288 290.214 508.578 288.261ZM507.333 300.077L508.331 300.139C508.208 302.093 508.126 304.058 508.084 306.033L507.085 306.012C507.126 304.023 507.209 302.044 507.333 300.077Z" fill="white"/>
</g>
<defs>
<clipPath id="clip0_140_257">
<rect width="795" height="772" fill="white"/>
</clipPath>
</defs>
</svg>
