<svg width="24" height="24" viewBox="0 0 24 24" fill="none" xmlns="http://www.w3.org/2000/svg">
<g clip-path="url(#clip0_43_220)">
<path d="M23.223 2.05801C22.8745 1.86632 22.4641 1.8209 22.0821 1.93172C21.7001 2.04255 21.3778 2.30056 21.186 2.64901L12.693 18.08L6.46199 11.286C6.32998 11.1369 6.16957 11.0155 5.99014 10.929C5.81071 10.8425 5.61585 10.7926 5.41694 10.7822C5.21802 10.7718 5.01902 10.8012 4.83157 10.8685C4.64411 10.9359 4.47195 11.0399 4.32512 11.1745C4.1783 11.3091 4.05975 11.4716 3.9764 11.6525C3.89306 11.8334 3.84658 12.0292 3.83968 12.2282C3.83278 12.4273 3.86559 12.6257 3.93621 12.812C4.00683 12.9982 4.11384 13.1686 4.25099 13.313L11.894 21.648C12.0569 21.82 12.2578 21.9514 12.4806 22.0318C12.7034 22.1122 12.942 22.1394 13.1772 22.1111C13.4124 22.0828 13.6377 21.9999 13.8351 21.869C14.0325 21.738 14.1965 21.5627 14.314 21.357L23.814 4.10001C23.9097 3.92723 23.9703 3.73724 23.9924 3.54096C24.0145 3.34468 23.9976 3.14598 23.9427 2.95625C23.8878 2.76651 23.7959 2.5895 23.6724 2.43535C23.5489 2.28121 23.3962 2.15298 23.223 2.05801Z" fill="#FF4066"/>
<path d="M2.605 14.625C2.33607 14.3318 1.96168 14.1575 1.5642 14.1403C1.16672 14.1232 0.778697 14.2646 0.4855 14.5335C0.192303 14.8025 0.0179466 15.1768 0.000787017 15.5743C-0.0163726 15.9718 0.12507 16.3598 0.394 16.653L4.975 21.653C5.24629 21.942 5.61993 22.1134 6.01595 22.1304C6.41198 22.1474 6.79893 22.0087 7.094 21.744C7.38714 21.4752 7.56151 21.1009 7.57876 20.7036C7.59602 20.3062 7.45474 19.9183 7.186 19.625L2.605 14.625Z" fill="#FF4066"/>
<path d="M10.3 12.973C10.4649 13.0787 10.6502 13.1488 10.8438 13.1788C11.0374 13.2088 11.2351 13.1981 11.4244 13.1472C11.6136 13.0964 11.7901 13.0066 11.9426 12.8836C12.0951 12.7606 12.2202 12.6071 12.31 12.433L16.894 4.09996C16.996 3.92706 17.0622 3.73545 17.0888 3.53648C17.1154 3.33751 17.1017 3.13523 17.0487 2.94162C16.9957 2.74802 16.9043 2.56703 16.7801 2.40937C16.6558 2.25172 16.5012 2.12061 16.3253 2.02381C16.1495 1.92701 15.956 1.8665 15.7563 1.84585C15.5566 1.8252 15.3548 1.84484 15.1629 1.9036C14.971 1.96236 14.7928 2.05905 14.6389 2.18794C14.485 2.31683 14.3585 2.4753 14.267 2.65396L9.678 10.986C9.58171 11.1558 9.52135 11.3436 9.50066 11.5377C9.47996 11.7318 9.49938 11.9282 9.5577 12.1145C9.61603 12.3008 9.71201 12.4731 9.8397 12.6208C9.96739 12.7685 10.1241 12.8883 10.3 12.973Z" fill="#FF4066"/>
</g>
<defs>
<clipPath id="clip0_43_220">
<rect width="24" height="24" fill="white"/>
</clipPath>
</defs>
</svg>
