<svg width="24" height="24" viewBox="0 0 24 24" fill="none" xmlns="http://www.w3.org/2000/svg">
<g clip-path="url(#clip0_43_205)">
<path d="M12 0C9.62663 0 7.30655 0.703788 5.33316 2.02236C3.35977 3.34094 1.8217 5.21509 0.913451 7.4078C0.00519943 9.60051 -0.232441 12.0133 0.230582 14.3411C0.693605 16.6689 1.83649 18.8071 3.51472 20.4853C5.19295 22.1635 7.33115 23.3064 9.65892 23.7694C11.9867 24.2324 14.3995 23.9948 16.5922 23.0866C18.7849 22.1783 20.6591 20.6402 21.9776 18.6668C23.2962 16.6935 24 14.3734 24 12C23.9966 8.81846 22.7312 5.76821 20.4815 3.51852C18.2318 1.26883 15.1815 0.00344108 12 0V0ZM7.50001 7C7.89557 7 8.28225 7.1173 8.61115 7.33706C8.94004 7.55682 9.19639 7.86918 9.34776 8.23463C9.49914 8.60009 9.53875 9.00222 9.46158 9.39018C9.38441 9.77814 9.19392 10.1345 8.91422 10.4142C8.63451 10.6939 8.27815 10.8844 7.89019 10.9616C7.50222 11.0387 7.10009 10.9991 6.73464 10.8478C6.36919 10.6964 6.05683 10.44 5.83707 10.1111C5.6173 9.78224 5.50001 9.39556 5.50001 9C5.50001 8.46957 5.71072 7.96086 6.08579 7.58579C6.46086 7.21071 6.96957 7 7.50001 7ZM7.05901 15.709C7.09729 15.6423 7.15248 15.5868 7.21901 15.5482C7.28555 15.5096 7.36108 15.4892 7.43801 15.489H16.561C16.638 15.4891 16.7136 15.5094 16.7802 15.5479C16.8469 15.5864 16.9022 15.6418 16.9407 15.7085C16.9792 15.7751 16.9995 15.8507 16.9995 15.9277C16.9996 16.0047 16.9794 16.0803 16.941 16.147C16.4401 17.0142 15.7198 17.7342 14.8525 18.2349C13.9852 18.7355 13.0014 18.9991 12 18.9991C10.9986 18.9991 10.0148 18.7355 9.14747 18.2349C8.28016 17.7342 7.55988 17.0142 7.05901 16.147C7.02037 16.0805 7.00001 16.0049 7.00001 15.928C7.00001 15.8511 7.02037 15.7755 7.05901 15.709ZM16.5 11C16.1044 11 15.7178 10.8827 15.3889 10.6629C15.06 10.4432 14.8036 10.1308 14.6522 9.76537C14.5009 9.39991 14.4613 8.99778 14.5384 8.60982C14.6156 8.22186 14.8061 7.86549 15.0858 7.58579C15.3655 7.30608 15.7219 7.1156 16.1098 7.03843C16.4978 6.96126 16.8999 7.00087 17.2654 7.15224C17.6308 7.30362 17.9432 7.55996 18.1629 7.88886C18.3827 8.21776 18.5 8.60444 18.5 9C18.5 9.53043 18.2893 10.0391 17.9142 10.4142C17.5391 10.7893 17.0304 11 16.5 11Z" fill="#FF4066"/>
</g>
<defs>
<clipPath id="clip0_43_205">
<rect width="24" height="24" fill="white"/>
</clipPath>
</defs>
</svg>
