<svg width="24" height="24" viewBox="0 0 24 24" fill="none" xmlns="http://www.w3.org/2000/svg">
<path d="M1.63402 18.75C2.00152 18.7507 2.35538 18.6108 2.62302 18.359L8.97602 12.4C9.06696 12.314 9.1879 12.2669 9.31306 12.2688C9.43822 12.2706 9.5577 12.3213 9.64602 12.41L11.783 14.548C12.4259 15.1618 13.2806 15.5043 14.1695 15.5043C15.0584 15.5043 15.9131 15.1618 16.556 14.548L20.133 10.971C20.1553 10.9486 20.1818 10.9309 20.211 10.9188C20.2402 10.9067 20.2714 10.9004 20.303 10.9004C20.3346 10.9004 20.3659 10.9067 20.3951 10.9188C20.4242 10.9309 20.4507 10.9486 20.473 10.971L22.167 12.659C22.3479 12.839 22.5928 12.9401 22.848 12.94C23.1037 12.9397 23.3489 12.8381 23.5297 12.6574C23.7106 12.4767 23.8125 12.2317 23.813 11.976V6.21401C23.8128 5.95825 23.711 5.71305 23.53 5.5323C23.3491 5.35154 23.1038 5.25001 22.848 5.25001H17.063C16.8715 5.24927 16.6841 5.30558 16.5248 5.41177C16.3654 5.51795 16.2413 5.6692 16.1682 5.84622C16.0951 6.02324 16.0765 6.21802 16.1145 6.4057C16.1526 6.59338 16.2457 6.76546 16.382 6.90001L18.082 8.60001C18.1273 8.6454 18.1529 8.70687 18.153 8.77101C18.1531 8.80265 18.1469 8.83399 18.1347 8.86319C18.1225 8.89239 18.1046 8.91885 18.082 8.94101L14.51 12.514C14.4192 12.6038 14.2967 12.6541 14.169 12.6541C14.0413 12.6541 13.9188 12.6038 13.828 12.514L11.69 10.376C11.0735 9.75324 10.2379 9.39609 9.36171 9.38077C8.48549 9.36545 7.63798 9.69317 7.00002 10.294L0.645024 16.248C0.43432 16.4466 0.288039 16.7038 0.225096 16.9865C0.162153 17.2691 0.185443 17.5641 0.291954 17.8333C0.398465 18.1025 0.583298 18.3336 0.822554 18.4967C1.06181 18.6598 1.34448 18.7473 1.63402 18.748V18.75Z" fill="#FF4066"/>
</svg>
