<svg width="16" height="24" viewBox="0 0 16 24" fill="none" xmlns="http://www.w3.org/2000/svg">
<path d="M8.00002 0.625977C5.94843 0.628094 3.98147 1.44403 2.53077 2.89472C1.08007 4.34542 0.264142 6.31238 0.262024 8.36398C0.278287 10.2299 0.97526 12.0257 2.22202 13.414C2.26907 13.4673 2.32693 13.5101 2.39175 13.5394C2.45657 13.5687 2.52688 13.5839 2.59802 13.584H13.398C13.4692 13.5839 13.5395 13.5687 13.6043 13.5394C13.6691 13.5101 13.727 13.4673 13.774 13.414C15.0208 12.0257 15.7178 10.2299 15.734 8.36398C15.7319 6.31307 14.9165 4.34672 13.4667 2.89613C12.0169 1.44555 10.0509 0.629153 8.00002 0.625977Z" fill="#FF4066"/>
<path d="M3.63001 15.584C3.56427 15.5837 3.49914 15.5965 3.43835 15.6215C3.37757 15.6465 3.32235 15.6834 3.27587 15.7298C3.22938 15.7763 3.19256 15.8316 3.16753 15.8923C3.1425 15.9531 3.12974 16.0183 3.13001 16.084V16.496C3.13249 17.2909 3.37761 18.0662 3.83258 18.7181C4.28755 19.37 4.93069 19.8675 5.67601 20.144C5.77104 20.18 5.8529 20.2441 5.91075 20.3276C5.9686 20.4112 5.99973 20.5104 6.00001 20.612V21.278C6.00001 21.8084 6.21072 22.3171 6.5858 22.6922C6.96087 23.0673 7.46958 23.278 8.00001 23.278C8.53044 23.278 9.03915 23.0673 9.41422 22.6922C9.7893 22.3171 10 21.8084 10 21.278V20.612C10.0003 20.5104 10.0314 20.4112 10.0893 20.3276C10.1471 20.2441 10.229 20.18 10.324 20.144C11.0693 19.8675 11.7125 19.37 12.1674 18.7181C12.6224 18.0662 12.8675 17.2909 12.87 16.496V16.084C12.8703 16.0183 12.8575 15.9531 12.8325 15.8923C12.8075 15.8316 12.7706 15.7763 12.7242 15.7298C12.6777 15.6834 12.6224 15.6465 12.5617 15.6215C12.5009 15.5965 12.4357 15.5837 12.37 15.584H3.63001Z" fill="#FF4066"/>
</svg>
