<svg width="24" height="24" viewBox="0 0 24 24" fill="none" xmlns="http://www.w3.org/2000/svg">
<g clip-path="url(#clip0_43_211)">
<path d="M10.5 20.2498C8.98337 20.2519 7.48361 19.9319 6.09999 19.3108C6.06194 19.2938 6.02024 19.2866 5.97869 19.2898C5.93714 19.293 5.89705 19.3066 5.86207 19.3292C5.8271 19.3519 5.79834 19.3829 5.77841 19.4195C5.75849 19.4561 5.74803 19.4971 5.74799 19.5388V21.4998C5.74799 21.6324 5.80066 21.7596 5.89443 21.8534C5.9882 21.9471 6.11538 21.9998 6.24799 21.9998H7.49999C7.53285 21.9997 7.56542 22.006 7.59581 22.0186C7.6262 22.0311 7.65382 22.0495 7.67706 22.0727C7.7003 22.096 7.71871 22.1236 7.73123 22.154C7.74374 22.1844 7.75012 22.2169 7.74999 22.2498V23.4998C7.74999 23.6324 7.80266 23.7596 7.89643 23.8534C7.9902 23.9471 8.11738 23.9998 8.24999 23.9998H13.25C13.3826 23.9998 13.5098 23.9471 13.6035 23.8534C13.6973 23.7596 13.75 23.6324 13.75 23.4998V22.2498C13.7499 22.2169 13.7562 22.1844 13.7687 22.154C13.7813 22.1236 13.7997 22.096 13.8229 22.0727C13.8462 22.0495 13.8738 22.0311 13.9042 22.0186C13.9345 22.006 13.9671 21.9997 14 21.9998H15.25C15.3826 21.9998 15.5098 21.9471 15.6035 21.8534C15.6973 21.7596 15.75 21.6324 15.75 21.4998V19.2998C15.7499 19.257 15.7388 19.215 15.7179 19.1777C15.6969 19.1404 15.6667 19.1091 15.6302 19.0869C15.5936 19.0646 15.552 19.0521 15.5093 19.0505C15.4665 19.0489 15.4241 19.0583 15.386 19.0778C13.8733 19.8505 12.1986 20.2522 10.5 20.2498Z" fill="#FF4066"/>
<path d="M22.311 18.9394L18.179 14.8084C18.1378 14.7671 18.1124 14.7127 18.1071 14.6546C18.1018 14.5965 18.117 14.5384 18.15 14.4904C19.4557 12.584 20.0025 10.2587 19.6831 7.97019C19.3638 5.68168 18.2014 3.59491 16.4236 2.11879C14.6459 0.642676 12.381 -0.116377 10.0728 -0.00962432C7.76458 0.0971281 5.57942 1.06199 3.94552 2.69589C2.31162 4.32979 1.34676 6.51495 1.24001 8.82316C1.13326 11.1314 1.89231 13.3963 3.36842 15.174C4.84454 16.9517 6.93131 18.1142 9.21982 18.4335C11.5083 18.7529 13.8336 18.2061 15.74 16.9004C15.7881 16.8674 15.8462 16.8522 15.9042 16.8575C15.9623 16.8628 16.0167 16.8882 16.058 16.9294L20.189 21.0604C20.4703 21.3418 20.8518 21.4999 21.2496 21.5C21.6475 21.5001 22.0291 21.3421 22.3105 21.0609C22.5919 20.7796 22.75 20.3981 22.7501 20.0002C22.7502 19.6024 22.5923 19.2208 22.311 18.9394ZM8.523 7.56636C8.53473 7.53015 8.55455 7.49707 8.58095 7.46965C8.60735 7.44222 8.63965 7.42116 8.67539 7.40805C8.71114 7.39495 8.74939 7.39015 8.78727 7.39402C8.82514 7.39788 8.86164 7.41031 8.894 7.43036C9.7497 7.96739 10.7397 8.25164 11.75 8.25036C12.1001 8.25076 12.4494 8.21727 12.793 8.15036C12.808 8.14666 12.8236 8.14646 12.8387 8.1498C12.8537 8.15313 12.8678 8.15991 12.8798 8.16959C12.8918 8.17927 12.9014 8.1916 12.9079 8.20562C12.9143 8.21963 12.9174 8.23494 12.917 8.25036C12.9168 8.57497 12.8463 8.89569 12.7105 9.19051C12.5746 9.48532 12.3766 9.74724 12.1299 9.9583C11.8833 10.1694 11.5939 10.3246 11.2817 10.4132C10.9694 10.5019 10.6417 10.522 10.3209 10.4721C10.0002 10.4221 9.69402 10.3034 9.42349 10.124C9.15296 9.94458 8.92446 9.70877 8.75365 9.43273C8.58285 9.15669 8.4738 8.84696 8.43399 8.5248C8.39417 8.20264 8.42454 7.87568 8.523 7.56636ZM3.25 9.26036C3.2494 8.05756 3.54762 6.87345 4.11785 5.8144C4.68809 4.75536 5.51249 3.85456 6.51697 3.19294C7.52146 2.53132 8.67458 2.1296 9.87273 2.02387C11.0709 1.91814 12.2765 2.11171 13.3814 2.58719C14.4862 3.06268 15.4556 3.80518 16.2025 4.74799C16.9494 5.6908 17.4504 6.80439 17.6604 7.98872C17.8705 9.17304 17.783 10.391 17.4059 11.5332C17.0288 12.6753 16.3739 13.7059 15.5 14.5324C15.4767 14.5546 15.4489 14.5713 15.4184 14.5815C15.3879 14.5917 15.3555 14.5949 15.3236 14.5911C15.2916 14.5873 15.261 14.5765 15.2337 14.5594C15.2065 14.5423 15.1834 14.5194 15.166 14.4924C14.5821 13.5741 13.7354 12.8528 12.736 12.4224C12.6929 12.404 12.6559 12.3739 12.6292 12.3354C12.6024 12.297 12.5871 12.2517 12.5849 12.205C12.5827 12.1582 12.5937 12.1117 12.6168 12.0709C12.6398 12.0301 12.6738 11.9967 12.715 11.9744C13.5433 11.5212 14.1971 10.8051 14.5733 9.93922C14.9496 9.07329 15.0269 8.10675 14.793 7.19203C14.5591 6.27732 14.0274 5.4665 13.2816 4.88746C12.5359 4.30842 11.6186 3.99411 10.6745 3.99411C9.73036 3.99411 8.81308 4.30842 8.06736 4.88746C7.32163 5.4665 6.78989 6.27732 6.556 7.19203C6.32211 8.10675 6.39939 9.07329 6.77565 9.93922C7.15191 10.8051 7.80574 11.5212 8.634 11.9744C8.67541 11.9973 8.70949 12.0315 8.7323 12.073C8.7551 12.1145 8.7657 12.1616 8.76288 12.2089C8.76006 12.2561 8.74392 12.3016 8.71634 12.3401C8.68876 12.3786 8.65085 12.4085 8.607 12.4264C7.5289 12.823 6.63748 13.6074 6.107 14.6264C6.09003 14.6609 6.06533 14.691 6.03481 14.7144C6.0043 14.7379 5.96879 14.7539 5.93105 14.7614C5.89331 14.7688 5.85437 14.7675 5.81724 14.7574C5.78012 14.7473 5.74581 14.7288 5.717 14.7034C4.94229 14.0238 4.32149 13.1867 3.89607 12.2481C3.47064 11.3095 3.25038 10.2909 3.25 9.26036Z" fill="#FF4066"/>
</g>
<defs>
<clipPath id="clip0_43_211">
<rect width="24" height="24" fill="white"/>
</clipPath>
</defs>
</svg>
