<svg width="24" height="24" viewBox="0 0 24 24" fill="none" xmlns="http://www.w3.org/2000/svg">
<g clip-path="url(#clip0_43_207)">
<path d="M23 10.5C23.1326 10.5 23.2598 10.4473 23.3536 10.3536C23.4473 10.2598 23.5 10.1326 23.5 10C23.4968 7.34881 22.4422 4.80712 20.5676 2.93244C18.6929 1.05776 16.1512 0.00317572 13.5 0C13.3674 0 13.2402 0.0526784 13.1464 0.146447C13.0527 0.240215 13 0.367392 13 0.5V9.525C13.0003 9.7836 13.103 10.0315 13.2858 10.2145C13.4686 10.3974 13.7164 10.5005 13.975 10.501L23 10.5Z" fill="#FF4066"/>
<path d="M23.5 12.0001H14C13.8526 11.9813 13.7032 12.0115 13.5746 12.086C13.4461 12.1605 13.3457 12.2753 13.2888 12.4125C13.232 12.5498 13.2218 12.7019 13.26 12.8455C13.2982 12.9891 13.3825 13.1162 13.5 13.2071L20.218 19.9251C20.3118 20.0188 20.4389 20.0715 20.5715 20.0715C20.7041 20.0715 20.8312 20.0188 20.925 19.9251C21.903 18.9522 22.6783 17.795 23.2061 16.5205C23.7339 15.2461 24.0038 13.8795 24 12.5001C24 12.3675 23.9473 12.2403 23.8536 12.1465C23.7598 12.0528 23.6326 12.0001 23.5 12.0001Z" fill="#FF4066"/>
<path d="M10.588 24.0002C11.9542 23.9973 13.3062 23.7232 14.5657 23.1938C15.8252 22.6644 16.967 21.8902 17.925 20.9162C18.0187 20.8224 18.0714 20.6953 18.0714 20.5627C18.0714 20.4301 18.0187 20.303 17.925 20.2092L11.207 13.4912C11.0889 13.3494 11.0167 13.175 11 12.9912V3.49121C11 3.3586 10.9473 3.23143 10.8536 3.13766C10.7598 3.04389 10.6326 2.99121 10.5 2.99121C7.71404 3.00288 5.04681 4.12079 3.08509 6.09902C1.12337 8.07725 0.0278362 10.7537 0.0395057 13.5397C0.0511753 16.3257 1.16909 18.9929 3.14732 20.9546C5.12554 22.9164 7.80204 24.0119 10.588 24.0002Z" fill="#FF4066"/>
</g>
<defs>
<clipPath id="clip0_43_207">
<rect width="24" height="24" fill="white"/>
</clipPath>
</defs>
</svg>
