<svg width="24" height="24" viewBox="0 0 24 24" fill="none" xmlns="http://www.w3.org/2000/svg">
<g clip-path="url(#clip0_43_224)">
<path d="M1 16.25H2.667C3.09072 16.2405 3.49851 16.0866 3.82291 15.8139C4.14731 15.5411 4.36889 15.1658 4.451 14.75C4.48364 14.6043 4.50007 14.4554 4.5 14.306V14C4.5 13.9337 4.52634 13.8701 4.57322 13.8232C4.62011 13.7763 4.6837 13.75 4.75 13.75H6C6.07043 13.75 6.14006 13.7649 6.20434 13.7937C6.26862 13.8224 6.3261 13.8645 6.373 13.917L9.963 17.94C10.0781 18.0765 10.2323 18.1744 10.4049 18.2203C10.5774 18.2663 10.7599 18.2581 10.9276 18.1969C11.0954 18.1357 11.2402 18.0244 11.3426 17.8781C11.445 17.7318 11.4999 17.5576 11.5 17.379V17.061C11.5001 17.0281 11.4937 16.9956 11.4812 16.9652C11.4687 16.9348 11.4502 16.9072 11.427 16.884L10.646 16.104C10.5521 16.0101 10.4994 15.8828 10.4994 15.75C10.4994 15.6172 10.5521 15.4899 10.646 15.396C10.7399 15.3021 10.8672 15.2494 11 15.2494C11.1328 15.2494 11.2601 15.3021 11.354 15.396L12.281 16.324L12.364 16.357C12.5177 16.4186 12.6824 16.4474 12.8479 16.4418C13.0133 16.4362 13.1757 16.3961 13.3248 16.3243C13.474 16.2524 13.6065 16.1502 13.7139 16.0243C13.8214 15.8984 13.9014 15.7515 13.949 15.593C13.9622 15.5498 13.9635 15.5038 13.9525 15.4599C13.9416 15.416 13.919 15.376 13.887 15.344L12.646 14.1C12.5521 14.0061 12.4994 13.8788 12.4994 13.746C12.4994 13.6132 12.5521 13.4859 12.646 13.392C12.7399 13.2981 12.8672 13.2454 13 13.2454C13.1328 13.2454 13.2601 13.2981 13.354 13.392L14.634 14.673C14.6572 14.6962 14.6848 14.7147 14.7152 14.7272C14.7456 14.7397 14.7781 14.7461 14.811 14.746H15C15.2652 14.746 15.5196 14.6406 15.7071 14.4531C15.8946 14.2656 16 14.0112 16 13.746C15.9992 13.5298 15.9291 13.3195 15.8 13.146L12.926 9.468C12.8941 9.42749 12.8505 9.39779 12.8011 9.38294C12.7517 9.36809 12.699 9.36881 12.65 9.385L11.09 9.9C10.7386 10.0171 10.3583 10.0153 10.008 9.8947C9.65777 9.77411 9.35696 9.54152 9.1521 9.23287C8.94724 8.92422 8.84974 8.55669 8.87467 8.18708C8.89959 7.81747 9.04556 7.46635 9.29 7.188C9.31957 7.15394 9.33941 7.11254 9.34744 7.06815C9.35547 7.02377 9.35139 6.97804 9.33563 6.93577C9.31987 6.89351 9.29301 6.85628 9.25788 6.82798C9.22275 6.79969 9.18065 6.78139 9.136 6.775C8.85271 6.73595 8.56414 6.77038 8.298 6.875L4.843 8.252C4.80501 8.26685 4.764 8.27233 4.72344 8.26798C4.68289 8.26362 4.64398 8.24957 4.61 8.227C4.57614 8.20412 4.54841 8.17328 4.52923 8.13719C4.51006 8.1011 4.50002 8.06087 4.5 8.02V7.694C4.49992 7.57022 4.48854 7.44671 4.466 7.325C4.39777 6.8933 4.18024 6.49922 3.85132 6.21142C3.5224 5.92361 3.10294 5.76033 2.666 5.75H1C0.734784 5.75 0.48043 5.85536 0.292893 6.04289C0.105357 6.23043 0 6.48478 0 6.75L0 15.25C0 15.5152 0.105357 15.7696 0.292893 15.9571C0.48043 16.1446 0.734784 16.25 1 16.25Z" fill="#FF4066"/>
<path d="M14.656 8.726L14.166 8.887C14.1271 8.89878 14.0916 8.91987 14.0627 8.94844C14.0338 8.97702 14.0122 9.01222 14 9.051C13.9884 9.08934 13.9862 9.12993 13.9937 9.16929C14.0012 9.20865 14.0181 9.2456 14.043 9.277L16.6 12.543C16.8593 12.892 16.9996 13.3152 17 13.75C17 13.8569 16.9913 13.9636 16.974 14.069C16.9678 14.1088 16.9712 14.1496 16.9839 14.1878C16.9966 14.2261 17.0182 14.2608 17.047 14.289C17.0758 14.3169 17.111 14.3375 17.1494 14.349C17.1879 14.3605 17.2286 14.3626 17.268 14.355L19.203 13.987C19.2391 13.9805 19.2762 13.9818 19.3118 13.991C19.3473 14.0001 19.3805 14.0169 19.409 14.04C19.4375 14.0634 19.4605 14.0929 19.4762 14.1263C19.4919 14.1596 19.5001 14.1961 19.5 14.233V14.306C19.5007 14.5183 19.5345 14.7291 19.6 14.931C19.7121 15.3064 19.9405 15.6364 20.2523 15.8735C20.5642 16.1106 20.9433 16.2424 21.335 16.25H23C23.2652 16.25 23.5196 16.1446 23.7071 15.9571C23.8946 15.7696 24 15.5152 24 15.25V6.75C24 6.48478 23.8946 6.23043 23.7071 6.04289C23.5196 5.85536 23.2652 5.75 23 5.75H21.333C21.0508 5.75233 20.7732 5.82119 20.5226 5.95099C20.2721 6.08079 20.0557 6.26785 19.891 6.497C19.7444 6.69479 19.6362 6.91832 19.572 7.156C19.5627 7.1893 19.5467 7.22035 19.5249 7.2472C19.5032 7.27405 19.4761 7.29613 19.4454 7.31208C19.4148 7.32802 19.3811 7.33749 19.3467 7.33988C19.3122 7.34228 19.2776 7.33755 19.245 7.326L15.23 5.866C14.984 5.7781 14.7229 5.7405 14.4622 5.75545C14.2014 5.77039 13.9463 5.83757 13.712 5.953L10.257 7.681C10.1031 7.75901 9.98422 7.89216 9.92411 8.05391C9.86399 8.21565 9.86704 8.39411 9.93265 8.5537C9.99825 8.7133 10.1216 8.84231 10.2781 8.91501C10.4346 8.98772 10.6127 8.99879 10.777 8.946L14.344 7.775C14.4701 7.73363 14.6075 7.74404 14.7259 7.80396C14.8443 7.86388 14.9341 7.96839 14.9755 8.0945C15.0169 8.22061 15.0064 8.35799 14.9465 8.47642C14.8866 8.59485 14.7821 8.68463 14.656 8.726Z" fill="#FF4066"/>
</g>
<defs>
<clipPath id="clip0_43_224">
<rect width="24" height="24" fill="white"/>
</clipPath>
</defs>
</svg>
