<svg width="24" height="24" viewBox="0 0 24 24" fill="none" xmlns="http://www.w3.org/2000/svg">
<path d="M2 17.865C1.73479 17.865 1.48043 17.9703 1.2929 18.1579C1.10536 18.3454 1 18.5998 1 18.865V20.365C0.99987 20.3979 1.00625 20.4304 1.01876 20.4608C1.03128 20.4912 1.04969 20.5188 1.07293 20.5421C1.09617 20.5653 1.12378 20.5837 1.15417 20.5962C1.18457 20.6087 1.21713 20.6151 1.25 20.615H4.75C4.78287 20.6151 4.81544 20.6087 4.84583 20.5962C4.87622 20.5837 4.90383 20.5653 4.92707 20.5421C4.95031 20.5188 4.96872 20.4912 4.98124 20.4608C4.99376 20.4304 5.00013 20.3979 5 20.365V18.865C5 18.5998 4.89464 18.3454 4.70711 18.1579C4.51957 17.9703 4.26522 17.865 4 17.865H2Z" fill="#FF4066"/>
<path d="M8 14.865C7.73479 14.865 7.48043 14.9703 7.2929 15.1579C7.10536 15.3454 7 15.5998 7 15.865V20.365C6.99987 20.3979 7.00625 20.4304 7.01876 20.4608C7.03128 20.4912 7.04969 20.5188 7.07293 20.5421C7.09617 20.5653 7.12378 20.5837 7.15417 20.5962C7.18457 20.6087 7.21713 20.6151 7.25 20.615H10.75C10.7829 20.6151 10.8154 20.6087 10.8458 20.5962C10.8762 20.5837 10.9038 20.5653 10.9271 20.5421C10.9503 20.5188 10.9687 20.4912 10.9812 20.4608C10.9938 20.4304 11.0001 20.3979 11 20.365V15.865C11 15.5998 10.8946 15.3454 10.7071 15.1579C10.5196 14.9703 10.2652 14.865 10 14.865H8Z" fill="#FF4066"/>
<path d="M14 11.365C13.7348 11.365 13.4804 11.4703 13.2929 11.6579C13.1054 11.8454 13 12.0998 13 12.365V20.365C12.9999 20.3979 13.0062 20.4304 13.0188 20.4608C13.0313 20.4912 13.0497 20.5188 13.0729 20.5421C13.0962 20.5653 13.1238 20.5837 13.1542 20.5962C13.1846 20.6087 13.2171 20.6151 13.25 20.615H16.75C16.7829 20.6151 16.8154 20.6087 16.8458 20.5962C16.8762 20.5837 16.9038 20.5653 16.9271 20.5421C16.9503 20.5188 16.9687 20.4912 16.9812 20.4608C16.9938 20.4304 17.0001 20.3979 17 20.365V12.365C17 12.0998 16.8946 11.8454 16.7071 11.6579C16.5196 11.4703 16.2652 11.365 16 11.365H14Z" fill="#FF4066"/>
<path d="M19.25 20.615H22.75C22.7829 20.6151 22.8154 20.6087 22.8458 20.5962C22.8762 20.5837 22.9038 20.5653 22.9271 20.5421C22.9503 20.5188 22.9687 20.4912 22.9812 20.4608C22.9938 20.4304 23.0001 20.3979 23 20.365V8.36499C23 8.09977 22.8946 7.84542 22.7071 7.65788C22.5196 7.47035 22.2652 7.36499 22 7.36499H20C19.7348 7.36499 19.4804 7.47035 19.2929 7.65788C19.1054 7.84542 19 8.09977 19 8.36499V20.365C18.9999 20.3979 19.0062 20.4304 19.0188 20.4608C19.0313 20.4912 19.0497 20.5188 19.0729 20.5421C19.0962 20.5653 19.1238 20.5837 19.1542 20.5962C19.1846 20.6087 19.2171 20.6151 19.25 20.615Z" fill="#FF4066"/>
</svg>
