<svg width="14" height="14" viewBox="0 0 14 14" fill="none" xmlns="http://www.w3.org/2000/svg">
<g clip-path="url(#clip0_5_189)">
<path d="M6.99999 11.3748C6.80919 11.3751 6.62054 11.3346 6.44661 11.2561C6.27269 11.1777 6.11751 11.063 5.99141 10.9198L0.268329 4.4145C0.0874423 4.19893 -0.00192362 3.92115 0.0193386 3.64054C0.0406007 3.35994 0.170805 3.09879 0.382108 2.91294C0.593411 2.72709 0.869043 2.63128 1.15007 2.64601C1.43109 2.66074 1.69519 2.78483 1.88591 2.99175L6.89033 8.68042C6.90402 8.69603 6.92088 8.70854 6.93979 8.71712C6.95871 8.72569 6.97923 8.73012 6.99999 8.73012C7.02076 8.73012 7.04129 8.72569 7.0602 8.71712C7.07911 8.70854 7.09597 8.69603 7.10966 8.68042L12.1141 2.99175C12.3048 2.78483 12.5689 2.66074 12.8499 2.64601C13.1309 2.63128 13.4066 2.72709 13.6179 2.91294C13.8292 3.09879 13.9594 3.35994 13.9807 3.64054C14.0019 3.92115 13.9125 4.19893 13.7317 4.4145L8.01033 10.9175C7.88401 11.0611 7.72859 11.1761 7.55439 11.2549C7.38019 11.3338 7.19121 11.3747 6.99999 11.3748Z" fill="black"/>
</g>
<defs>
<clipPath id="clip0_5_189">
<rect width="14" height="14" fill="white" transform="translate(14) rotate(90)"/>
</clipPath>
</defs>
</svg>
