<svg width="398" height="362" viewBox="0 0 398 362" fill="none" xmlns="http://www.w3.org/2000/svg">
<path fill-rule="evenodd" clip-rule="evenodd" d="M398 181C398 179.986 397.992 178.974 397.975 177.964L396.975 177.98C396.992 178.985 397 179.991 397 181H398ZM397.975 184.036L396.975 184.02C396.942 186.029 396.876 188.031 396.778 190.023L397.777 190.073C397.875 188.069 397.942 186.057 397.975 184.036ZM397.378 196.119L396.381 196.036C396.215 198.041 396.017 200.036 395.786 202.021L396.779 202.137C397.011 200.141 397.211 198.134 397.378 196.119ZM395.981 208.127L394.992 207.978C394.693 209.969 394.361 211.949 393.997 213.918L394.98 214.1C395.346 212.12 395.68 210.129 395.981 208.127ZM393.782 220.028L392.805 219.813C392.374 221.775 391.911 223.725 391.416 225.662L392.385 225.909C392.882 223.961 393.348 222.001 393.782 220.028ZM390.789 231.75L389.829 231.47C389.266 233.399 388.673 235.314 388.048 237.215L388.998 237.527C389.626 235.615 390.223 233.689 390.789 231.75ZM387.016 243.238L386.077 242.894C385.385 244.781 384.664 246.654 383.912 248.511L384.838 248.887C385.595 247.019 386.321 245.136 387.016 243.238ZM382.474 254.455L381.56 254.049C380.745 255.883 379.9 257.701 379.026 259.502L379.925 259.938C380.805 258.127 381.654 256.299 382.474 254.455ZM377.192 265.337L376.307 264.871C375.371 266.646 374.405 268.404 373.411 270.144L374.28 270.64C375.279 268.891 376.25 267.123 377.192 265.337ZM371.193 275.841L370.341 275.316C369.288 277.025 368.207 278.715 367.099 280.385L367.932 280.938C369.047 279.258 370.134 277.559 371.193 275.841ZM364.504 285.923L363.69 285.342C362.525 286.976 361.334 288.59 360.117 290.182L360.912 290.79C362.136 289.188 363.333 287.566 364.504 285.923ZM357.16 295.535L356.386 294.901C355.116 296.454 353.82 297.985 352.499 299.494L353.252 300.153C354.579 298.636 355.882 297.096 357.16 295.535ZM349.192 304.638L348.462 303.955C347.092 305.419 345.697 306.861 344.279 308.279L344.986 308.986C346.412 307.56 347.814 306.111 349.192 304.638ZM340.638 313.192L339.955 312.462C338.491 313.832 337.004 315.178 335.494 316.499L336.153 317.252C337.671 315.923 339.166 314.57 340.638 313.192ZM331.535 321.16L330.901 320.386C329.35 321.655 327.777 322.899 326.182 324.117L326.79 324.912C328.393 323.687 329.974 322.436 331.535 321.16ZM321.923 328.504L321.342 327.69C319.71 328.853 318.057 329.99 316.385 331.099L316.938 331.932C318.619 330.817 320.281 329.674 321.923 328.504ZM311.841 335.193L311.316 334.341C309.611 335.392 307.887 336.416 306.144 337.411L306.64 338.28C308.392 337.279 310.126 336.25 311.841 335.193ZM301.337 341.192L300.871 340.307C299.098 341.242 297.308 342.149 295.502 343.026L295.938 343.925C297.755 343.044 299.555 342.132 301.337 341.192ZM290.455 346.474L290.049 345.56C288.219 346.374 286.373 347.158 284.511 347.912L284.887 348.838C286.759 348.081 288.615 347.292 290.455 346.474ZM279.238 351.016L278.894 350.077C277.015 350.764 275.122 351.422 273.215 352.048L273.527 352.998C275.445 352.368 277.349 351.707 279.238 351.016ZM267.75 354.789L267.47 353.829C265.547 354.389 263.611 354.919 261.662 355.416L261.909 356.385C263.869 355.885 265.816 355.352 267.75 354.789ZM256.028 357.782L255.814 356.805C253.86 357.234 251.895 357.632 249.919 357.997L250.1 358.98C252.088 358.613 254.064 358.213 256.028 357.782ZM244.127 359.981L243.978 358.992C242.003 359.289 240.017 359.554 238.021 359.786L238.137 360.779C240.144 360.546 242.141 360.279 244.127 359.981ZM232.119 361.378L232.037 360.381C230.041 360.546 228.037 360.678 226.024 360.778L226.073 361.777C228.097 361.677 230.113 361.543 232.119 361.378ZM220.036 361.975L220.02 360.975C219.015 360.992 218.009 361 217 361V362C218.014 362 219.026 361.992 220.036 361.975ZM213.964 361.975L213.98 360.975C211.971 360.942 209.969 360.876 207.977 360.778L207.927 361.777C209.931 361.875 211.943 361.942 213.964 361.975ZM201.881 361.378L201.964 360.381C199.959 360.215 197.964 360.017 195.979 359.786L195.863 360.779C197.859 361.011 199.866 361.211 201.881 361.378ZM189.873 359.981L190.022 358.992C188.031 358.693 186.051 358.361 184.082 357.997L183.9 358.98C185.88 359.346 187.871 359.68 189.873 359.981ZM177.972 357.782L178.187 356.805C176.225 356.374 174.275 355.911 172.338 355.416L172.091 356.385C174.039 356.882 175.999 357.348 177.972 357.782ZM166.25 354.789L166.53 353.829C164.601 353.266 162.686 352.673 160.785 352.048L160.473 352.998C162.385 353.626 164.311 354.223 166.25 354.789ZM154.762 351.016L155.106 350.077C153.219 349.385 151.346 348.664 149.489 347.912L149.113 348.838C150.981 349.595 152.864 350.321 154.762 351.016ZM143.545 346.474L143.951 345.56C142.117 344.745 140.299 343.9 138.498 343.026L138.062 343.925C139.873 344.805 141.701 345.654 143.545 346.474ZM132.663 341.192L133.129 340.307C131.354 339.371 129.596 338.405 127.856 337.411L127.36 338.28C129.109 339.279 130.877 340.25 132.663 341.192ZM122.159 335.193L122.684 334.341C120.975 333.288 119.285 332.207 117.615 331.099L117.062 331.932C118.742 333.047 120.441 334.134 122.159 335.193ZM112.077 328.504L112.658 327.69C111.024 326.525 109.41 325.334 107.818 324.117L107.21 324.912C108.812 326.136 110.434 327.333 112.077 328.504ZM102.465 321.16L103.099 320.386C101.546 319.116 100.015 317.82 98.5057 316.499L97.8471 317.252C99.3643 318.579 100.904 319.882 102.465 321.16ZM93.3618 313.192L94.045 312.462C92.5805 311.092 91.1389 309.697 89.7208 308.279L89.0137 308.986C90.4396 310.412 91.8892 311.814 93.3618 313.192ZM84.8076 304.638L85.5378 303.955C84.1678 302.491 82.822 301.004 81.5009 299.494L80.7485 300.153C82.0768 301.671 83.43 303.166 84.8076 304.638ZM76.8401 295.535L77.6141 294.901C76.3446 293.35 75.1006 291.777 73.8826 290.182L73.088 290.79C74.3127 292.393 75.5636 293.974 76.8401 295.535ZM69.496 285.923L70.3104 285.342C69.1471 283.71 68.0104 282.057 66.9008 280.385L66.0676 280.938C67.1832 282.619 68.3263 284.281 69.496 285.923ZM62.8074 275.841L63.6587 275.316C62.6075 273.611 61.584 271.887 60.5887 270.144L59.7204 270.64C60.7212 272.392 61.7504 274.126 62.8074 275.841ZM56.8081 265.337L57.6926 264.871C56.7575 263.098 55.8512 261.308 54.9742 259.502L54.0746 259.938C54.9565 261.755 55.8679 263.555 56.8081 265.337ZM51.5258 254.455L52.4396 254.049C51.626 252.219 50.8421 250.373 50.0885 248.511L49.1616 248.887C49.9194 250.759 50.7077 252.615 51.5258 254.455ZM46.9844 243.238L47.9235 242.894C47.2357 241.015 46.5782 239.122 45.9519 237.215L45.0018 237.527C45.6317 239.445 46.2928 241.349 46.9844 243.238ZM43.2113 231.75L44.1714 231.47C43.6108 229.547 43.0814 227.611 42.5838 225.662L41.6149 225.909C42.1153 227.869 42.6476 229.816 43.2113 231.75ZM40.2184 220.028L41.1951 219.814C40.7659 217.86 40.3683 215.895 40.003 213.919L39.0197 214.1C39.387 216.088 39.7868 218.064 40.2184 220.028ZM38.0192 208.127L39.0081 207.978C38.7113 206.003 38.4465 204.017 38.2143 202.021L37.221 202.137C37.4544 204.144 37.7207 206.141 38.0192 208.127ZM36.6225 196.119L37.6191 196.037C37.4541 194.041 37.3216 192.037 37.2222 190.024L36.2234 190.073C36.3234 192.097 36.4566 194.113 36.6225 196.119ZM36.025 184.036L37.0248 184.02C37.0083 183.015 37 182.009 37 181H36C36 182.014 36.0083 183.026 36.025 184.036ZM397.777 171.927C397.677 169.903 397.543 167.887 397.378 165.881L396.381 165.963C396.546 167.959 396.678 169.963 396.778 171.976L397.777 171.927ZM396.779 159.863L395.786 159.979C395.554 157.983 395.289 155.997 394.992 154.022L395.981 153.873C396.279 155.859 396.546 157.856 396.779 159.863ZM394.98 147.9L393.997 148.081C393.632 146.105 393.234 144.14 392.805 142.186L393.782 141.972C394.213 143.936 394.613 145.912 394.98 147.9ZM392.385 136.091L391.416 136.338C390.919 134.389 390.389 132.453 389.829 130.53L390.789 130.25C391.352 132.184 391.885 134.131 392.385 136.091ZM388.998 124.473L388.048 124.785C387.422 122.878 386.764 120.985 386.077 119.106L387.016 118.762C387.707 120.651 388.368 122.555 388.998 124.473ZM384.838 113.113L383.912 113.489C383.158 111.627 382.374 109.781 381.56 107.951L382.474 107.545C383.292 109.385 384.081 111.241 384.838 113.113ZM379.925 102.062L379.026 102.498C378.149 100.692 377.242 98.9017 376.307 97.1293L377.192 96.6627C378.132 98.445 379.044 100.245 379.925 102.062ZM374.28 91.3597L373.411 91.8557C372.416 90.1132 371.392 88.389 370.341 86.6836L371.193 86.1589C372.25 87.8737 373.279 89.6076 374.28 91.3597ZM367.932 81.0624L367.099 81.6153C365.99 79.9429 364.853 78.2902 363.69 76.6577L364.504 76.0774C365.674 77.7189 366.817 79.3808 367.932 81.0624ZM360.912 71.2104L360.117 71.8175C358.899 70.2234 357.655 68.6502 356.386 67.0986L357.16 66.4653C358.436 68.0255 359.687 69.6074 360.912 71.2104ZM353.252 61.8471L352.499 62.5057C351.178 60.9963 349.832 59.5092 348.462 58.045L349.192 57.3618C350.57 58.8341 351.923 60.3294 353.252 61.8471ZM344.986 53.0137C343.56 51.5878 342.111 50.1855 340.638 48.8076L339.955 49.5378C341.419 50.9082 342.861 52.3027 344.279 53.7208L344.986 53.0137ZM336.153 44.7485L335.494 45.5009C333.985 44.1803 332.454 42.8845 330.901 41.6141L331.535 40.8401C333.096 42.1175 334.636 43.4205 336.153 44.7485ZM326.79 37.088L326.182 37.8826C324.59 36.6656 322.976 35.4747 321.342 34.3104L321.923 33.496C323.566 34.6668 325.188 35.8643 326.79 37.088ZM316.938 30.0675L316.385 30.9008C314.715 29.7928 313.025 28.7119 311.316 27.6587L311.841 26.8074C313.559 27.8664 315.258 28.9533 316.938 30.0675ZM306.64 23.7204C304.891 22.7211 303.123 21.7501 301.337 20.8081L300.871 21.6926C302.646 22.6293 304.404 23.5949 306.144 24.5887L306.64 23.7204ZM295.938 18.0746L295.502 18.9742C293.701 18.1 291.883 17.2549 290.049 16.4396L290.455 15.5258C292.299 16.3457 294.127 17.1955 295.938 18.0746ZM284.887 13.1615L284.511 14.0885C282.654 13.3365 280.781 12.6146 278.894 11.9234L279.238 10.9844C281.136 11.6795 283.019 12.4054 284.887 13.1615ZM273.527 9.00176L273.215 9.95183C271.314 9.32731 269.399 8.73361 267.47 8.17133L267.75 7.21129C269.689 7.77673 271.615 8.37375 273.527 9.00176ZM261.909 5.61488L261.662 6.58381C259.725 6.0893 257.775 5.6262 255.813 5.19511L256.028 4.21842C258.001 4.65192 259.961 5.11761 261.909 5.61488ZM250.1 3.01967L249.918 4.00302C247.949 3.63915 245.969 3.30733 243.978 3.00812L244.127 2.01922C246.129 2.3201 248.12 2.65377 250.1 3.01967ZM238.137 1.22101L238.021 2.21431C236.036 1.98342 234.041 1.78482 232.036 1.61906L232.119 0.622466C234.134 0.789139 236.141 0.988835 238.137 1.22101ZM226.073 0.223435L226.023 1.22222C224.031 1.12384 222.029 1.05787 220.02 1.02482L220.036 0.0249548C222.057 0.0581856 224.069 0.124519 226.073 0.223435ZM217 0C215.986 0 214.974 0.00834037 213.964 0.0249563L213.98 1.02482C214.985 1.0083 215.991 1 217 1V0ZM207.927 0.223439C205.903 0.323372 203.887 0.456562 201.881 0.622474L201.963 1.61907C203.959 1.45407 205.963 1.32161 207.976 1.22222L207.927 0.223439ZM195.863 1.22102L195.979 2.21433C193.983 2.44647 191.997 2.71125 190.022 3.00813L189.873 2.01924C191.859 1.7207 193.856 1.45445 195.863 1.22102ZM183.9 3.01969L184.081 4.00304C182.105 4.3683 180.14 4.76586 178.186 5.19513L177.972 4.21844C179.936 3.78676 181.912 3.38699 183.9 3.01969ZM172.091 5.6149L172.338 6.58383C170.389 7.08139 168.453 7.61076 166.53 8.17135L166.25 7.21132C168.184 6.64759 170.131 6.11525 172.091 5.6149ZM160.473 9.00179L160.785 9.95185C158.878 10.5782 156.985 11.2357 155.106 11.9235L154.762 10.9844C156.651 10.2928 158.555 9.63169 160.473 9.00179ZM149.113 13.1616L149.489 14.0885C147.627 14.8421 145.781 15.626 143.951 16.4396L143.545 15.5258C145.385 14.7077 147.241 13.9194 149.113 13.1616ZM138.062 18.0746L138.498 18.9742C136.692 19.8512 134.902 20.7575 133.129 21.6926L132.663 20.8081C134.445 19.8679 136.245 18.9565 138.062 18.0746ZM127.36 23.7204C125.608 24.7212 123.874 25.7504 122.159 26.8074L122.684 27.6587C124.389 26.6075 126.113 25.584 127.856 24.5887L127.36 23.7204ZM117.062 30.0676L117.615 30.9008C115.943 32.0104 114.29 33.1471 112.658 34.3104L112.077 33.496C113.719 32.3263 115.381 31.1832 117.062 30.0676ZM107.21 37.088L107.818 37.8826C106.223 39.1006 104.65 40.3446 103.099 41.6141L102.465 40.8401C104.026 39.5636 105.607 38.3127 107.21 37.088ZM97.8471 44.7484L98.5057 45.5009C96.9963 46.822 95.5092 48.1678 94.045 49.5378L93.3618 48.8076C94.8341 47.43 96.3294 46.0768 97.8471 44.7484ZM89.0137 53.0137C87.5878 54.4396 86.1855 55.8892 84.8076 57.3618L85.5378 58.045C86.9082 56.5805 88.3027 55.1389 89.7208 53.7208L89.0137 53.0137ZM80.7484 61.8471L81.5009 62.5057C80.1803 64.0146 78.8845 65.5458 77.6141 67.0986L76.8401 66.4653C78.1175 64.904 79.4205 63.3643 80.7484 61.8471ZM73.0879 71.2104L73.8826 71.8175C72.6656 73.4102 71.4747 75.0238 70.3104 76.6577L69.496 76.0774C70.6668 74.4345 71.8643 72.8119 73.0879 71.2104ZM66.0675 81.0624L66.9008 81.6153C65.7928 83.2854 64.7119 84.975 63.6587 86.6836L62.8074 86.1589C63.8664 84.4408 64.9533 82.7418 66.0675 81.0624ZM59.7204 91.3598L60.5887 91.8557C59.5949 93.5956 58.6293 95.3537 57.6926 97.1294L56.8081 96.6627C57.7501 94.8772 58.7211 93.1094 59.7204 91.3598ZM54.0746 102.062L54.9742 102.498C54.1 104.299 53.2549 106.117 52.4396 107.951L51.5258 107.545C52.3457 105.701 53.1955 103.873 54.0746 102.062ZM49.1615 113.113L50.0885 113.489C49.3365 115.346 48.6146 117.219 47.9234 119.106L46.9844 118.762C47.6794 116.864 48.4054 114.981 49.1615 113.113ZM45.0018 124.473L45.9518 124.785C45.3273 126.686 44.7336 128.601 44.1713 130.53L43.2113 130.25C43.7767 128.311 44.3737 126.385 45.0018 124.473ZM41.6149 136.091L42.5838 136.338C42.0893 138.275 41.6262 140.225 41.1951 142.187L40.2184 141.972C40.6519 139.999 41.1176 138.039 41.6149 136.091ZM39.0197 147.9L40.003 148.082C39.6392 150.051 39.3073 152.031 39.0081 154.022L38.0192 153.873C38.3201 151.871 38.6538 149.88 39.0197 147.9ZM37.221 159.863L38.2143 159.979C37.9834 161.964 37.7848 163.959 37.6191 165.964L36.6225 165.881C36.7891 163.866 36.9888 161.859 37.221 159.863ZM36.2234 171.927L37.2222 171.977C37.1238 173.969 37.0579 175.971 37.0248 177.98L36.025 177.964C36.0582 175.943 36.1245 173.931 36.2234 171.927Z" fill="black"/>
<path d="M30 3L31.6996 13.3183C33.2197 22.5471 40.4529 29.7803 49.6817 31.3004L60 33L49.6817 34.6996C40.4529 36.2197 33.2197 43.4529 31.6996 52.6817L30 63L28.3004 52.6817C26.7803 43.4529 19.5471 36.2197 10.3183 34.6996L0 33L10.3183 31.3004C19.5471 29.7803 26.7803 22.5471 28.3004 13.3183L30 3Z" fill="black"/>
</svg>
