<svg width="382" height="311" viewBox="0 0 382 311" fill="none" xmlns="http://www.w3.org/2000/svg">
<path fill-rule="evenodd" clip-rule="evenodd" d="M362 181C362 179.986 361.992 178.974 361.975 177.964L360.975 177.98C360.992 178.985 361 179.991 361 181H362ZM361.975 184.036L360.975 184.02C360.942 186.029 360.876 188.031 360.778 190.023L361.777 190.073C361.875 188.069 361.942 186.057 361.975 184.036ZM361.378 196.119L360.381 196.036C360.215 198.041 360.017 200.036 359.786 202.021L360.779 202.137C361.011 200.141 361.211 198.134 361.378 196.119ZM359.981 208.127L358.992 207.978C358.693 209.969 358.361 211.949 357.997 213.918L358.98 214.1C359.346 212.12 359.68 210.129 359.981 208.127ZM357.782 220.028L356.805 219.813C356.374 221.775 355.911 223.725 355.416 225.662L356.385 225.909C356.882 223.961 357.348 222.001 357.782 220.028ZM354.789 231.75L353.829 231.47C353.266 233.399 352.673 235.314 352.048 237.215L352.998 237.527C353.626 235.615 354.223 233.689 354.789 231.75ZM351.016 243.238L350.077 242.894C349.385 244.781 348.664 246.654 347.912 248.511L348.838 248.887C349.595 247.019 350.321 245.136 351.016 243.238ZM346.474 254.455L345.56 254.049C344.745 255.883 343.9 257.701 343.026 259.502L343.925 259.938C344.805 258.127 345.654 256.299 346.474 254.455ZM341.192 265.337L340.307 264.871C339.371 266.646 338.405 268.404 337.411 270.144L338.28 270.64C339.279 268.891 340.25 267.123 341.192 265.337ZM335.193 275.841L334.341 275.316C333.288 277.025 332.207 278.715 331.099 280.385L331.932 280.938C333.047 279.258 334.134 277.559 335.193 275.841ZM328.504 285.923L327.69 285.342C326.525 286.976 325.334 288.59 324.117 290.182L324.912 290.79C326.136 289.188 327.333 287.566 328.504 285.923ZM321.16 295.535L320.386 294.901C319.116 296.454 317.82 297.985 316.499 299.494L317.252 300.153C318.579 298.636 319.882 297.096 321.16 295.535ZM313.192 304.638L312.462 303.955C311.092 305.419 309.697 306.861 308.279 308.279L308.986 308.986C310.412 307.56 311.814 306.111 313.192 304.638ZM304.638 313.192L303.955 312.462C302.491 313.832 301.004 315.178 299.494 316.499L300.153 317.252C301.671 315.923 303.166 314.57 304.638 313.192ZM295.535 321.16L294.901 320.386C293.35 321.655 291.777 322.899 290.182 324.117L290.79 324.912C292.393 323.687 293.974 322.436 295.535 321.16ZM285.923 328.504L285.342 327.69C283.71 328.853 282.057 329.99 280.385 331.099L280.938 331.932C282.619 330.817 284.281 329.674 285.923 328.504ZM275.841 335.193L275.316 334.341C273.611 335.392 271.887 336.416 270.144 337.411L270.64 338.28C272.392 337.279 274.126 336.25 275.841 335.193ZM265.337 341.192L264.871 340.307C263.098 341.242 261.308 342.149 259.502 343.026L259.938 343.925C261.755 343.044 263.555 342.132 265.337 341.192ZM254.455 346.474L254.049 345.56C252.219 346.374 250.373 347.158 248.511 347.912L248.887 348.838C250.759 348.081 252.615 347.292 254.455 346.474ZM243.238 351.016L242.894 350.077C241.015 350.764 239.122 351.422 237.215 352.048L237.527 352.998C239.445 352.368 241.349 351.707 243.238 351.016ZM231.75 354.789L231.47 353.829C229.547 354.389 227.611 354.919 225.662 355.416L225.909 356.385C227.869 355.885 229.816 355.352 231.75 354.789ZM220.028 357.782L219.814 356.805C217.86 357.234 215.895 357.632 213.919 357.997L214.1 358.98C216.088 358.613 218.064 358.213 220.028 357.782ZM208.127 359.981L207.978 358.992C206.003 359.289 204.017 359.554 202.021 359.786L202.137 360.779C204.144 360.546 206.141 360.279 208.127 359.981ZM196.119 361.378L196.037 360.381C194.041 360.546 192.037 360.678 190.024 360.778L190.073 361.777C192.097 361.677 194.113 361.543 196.119 361.378ZM184.036 361.975L184.02 360.975C183.015 360.992 182.009 361 181 361V362C182.014 362 183.026 361.992 184.036 361.975ZM177.964 361.975L177.98 360.975C175.971 360.942 173.969 360.876 171.977 360.778L171.927 361.777C173.931 361.875 175.943 361.942 177.964 361.975ZM165.881 361.378L165.964 360.381C163.959 360.215 161.964 360.017 159.979 359.786L159.863 360.779C161.859 361.011 163.866 361.211 165.881 361.378ZM153.873 359.981L154.022 358.992C152.031 358.693 150.051 358.361 148.082 357.997L147.9 358.98C149.88 359.346 151.871 359.68 153.873 359.981ZM141.972 357.782L142.187 356.805C140.225 356.374 138.275 355.911 136.338 355.416L136.091 356.385C138.039 356.882 139.999 357.348 141.972 357.782ZM130.25 354.789L130.53 353.829C128.601 353.266 126.686 352.673 124.785 352.048L124.473 352.998C126.385 353.626 128.311 354.223 130.25 354.789ZM118.762 351.016L119.106 350.077C117.219 349.385 115.346 348.664 113.489 347.912L113.113 348.838C114.981 349.595 116.864 350.321 118.762 351.016ZM107.545 346.474L107.951 345.56C106.117 344.745 104.299 343.9 102.498 343.026L102.062 343.925C103.873 344.805 105.701 345.654 107.545 346.474ZM96.6628 341.192L97.1294 340.307C95.3537 339.371 93.5956 338.405 91.8557 337.411L91.3598 338.28C93.1094 339.279 94.8772 340.25 96.6628 341.192ZM86.1589 335.193L86.6836 334.341C84.975 333.288 83.2854 332.207 81.6153 331.099L81.0624 331.932C82.7418 333.047 84.4408 334.134 86.1589 335.193ZM76.0774 328.504L76.6577 327.69C75.0238 326.525 73.4102 325.334 71.8175 324.117L71.2104 324.912C72.8119 326.136 74.4345 327.333 76.0774 328.504ZM66.4653 321.16L67.0986 320.386C65.5458 319.116 64.0146 317.82 62.5057 316.499L61.8471 317.252C63.3643 318.579 64.904 319.882 66.4653 321.16ZM57.3618 313.192L58.045 312.462C56.5805 311.092 55.1389 309.697 53.7208 308.279L53.0137 308.986C54.4396 310.412 55.8892 311.814 57.3618 313.192ZM48.8076 304.638L49.5378 303.955C48.1678 302.491 46.822 301.004 45.5009 299.494L44.7485 300.153C46.0768 301.671 47.43 303.166 48.8076 304.638ZM40.8401 295.535L41.6141 294.901C40.3446 293.35 39.1006 291.777 37.8826 290.182L37.088 290.79C38.3127 292.393 39.5636 293.974 40.8401 295.535ZM33.496 285.923L34.3104 285.342C33.1471 283.71 32.0104 282.057 30.9008 280.385L30.0676 280.938C31.1832 282.619 32.3263 284.281 33.496 285.923ZM26.8074 275.841L27.6587 275.316C26.6075 273.611 25.584 271.887 24.5887 270.144L23.7204 270.64C24.7212 272.392 25.7504 274.126 26.8074 275.841ZM20.8081 265.337L21.6926 264.871C20.7575 263.098 19.8512 261.308 18.9742 259.502L18.0746 259.938C18.9565 261.755 19.8679 263.555 20.8081 265.337ZM15.5258 254.455L16.4396 254.049C15.626 252.219 14.8421 250.373 14.0885 248.511L13.1616 248.887C13.9194 250.759 14.7077 252.615 15.5258 254.455ZM10.9844 243.238L11.9235 242.894C11.2357 241.015 10.5782 239.122 9.95185 237.215L9.00179 237.527C9.63169 239.445 10.2928 241.349 10.9844 243.238ZM7.21132 231.75L8.17135 231.47C7.61076 229.547 7.08139 227.611 6.58383 225.662L5.61491 225.909C6.11525 227.869 6.64759 229.816 7.21132 231.75ZM4.21844 220.028L5.19513 219.814C4.76586 217.86 4.3683 215.895 4.00304 213.919L3.01969 214.1C3.38699 216.088 3.78676 218.064 4.21844 220.028ZM2.01924 208.127L3.00813 207.978C2.71125 206.003 2.44647 204.017 2.21433 202.021L1.22102 202.137C1.45445 204.144 1.7207 206.141 2.01924 208.127ZM0.622474 196.119L1.61907 196.037C1.45407 194.041 1.32161 192.037 1.22222 190.024L0.223439 190.073C0.323372 192.097 0.456562 194.113 0.622474 196.119ZM0.0249563 184.036L1.02482 184.02C1.0083 183.015 1 182.009 1 181H0C0 182.014 0.00834037 183.026 0.0249563 184.036ZM361.777 171.927C361.677 169.903 361.543 167.887 361.378 165.881L360.381 165.963C360.546 167.959 360.678 169.963 360.778 171.976L361.777 171.927ZM360.779 159.863L359.786 159.979C359.554 157.983 359.289 155.997 358.992 154.022L359.981 153.873C360.279 155.859 360.546 157.856 360.779 159.863ZM358.98 147.9L357.997 148.081C357.632 146.105 357.234 144.14 356.805 142.186L357.782 141.972C358.213 143.936 358.613 145.912 358.98 147.9ZM356.385 136.091L355.416 136.338C354.919 134.389 354.389 132.453 353.829 130.53L354.789 130.25C355.352 132.184 355.885 134.131 356.385 136.091ZM352.998 124.473L352.048 124.785C351.422 122.878 350.764 120.985 350.077 119.106L351.016 118.762C351.707 120.651 352.368 122.555 352.998 124.473ZM348.838 113.113L347.912 113.489C347.158 111.627 346.374 109.781 345.56 107.951L346.474 107.545C347.292 109.385 348.081 111.241 348.838 113.113ZM343.925 102.062L343.026 102.498C342.149 100.692 341.242 98.9017 340.307 97.1293L341.192 96.6627C342.132 98.445 343.044 100.245 343.925 102.062ZM338.28 91.3597L337.411 91.8557C336.416 90.1132 335.392 88.389 334.341 86.6836L335.193 86.1589C336.25 87.8737 337.279 89.6076 338.28 91.3597ZM331.932 81.0624L331.099 81.6153C329.99 79.9429 328.853 78.2902 327.69 76.6577L328.504 76.0774C329.674 77.7189 330.817 79.3808 331.932 81.0624ZM324.912 71.2104L324.117 71.8175C322.899 70.2234 321.655 68.6502 320.386 67.0986L321.16 66.4653C322.436 68.0255 323.687 69.6074 324.912 71.2104ZM317.252 61.8471L316.499 62.5057C315.178 60.9963 313.832 59.5092 312.462 58.045L313.192 57.3618C314.57 58.8341 315.923 60.3294 317.252 61.8471ZM308.986 53.0137C307.56 51.5878 306.111 50.1855 304.638 48.8076L303.955 49.5378C305.419 50.9082 306.861 52.3027 308.279 53.7208L308.986 53.0137ZM300.153 44.7485L299.494 45.5009C297.985 44.1803 296.454 42.8845 294.901 41.6141L295.535 40.8401C297.096 42.1175 298.636 43.4205 300.153 44.7485ZM290.79 37.088L290.182 37.8826C288.59 36.6656 286.976 35.4747 285.342 34.3104L285.923 33.496C287.566 34.6668 289.188 35.8643 290.79 37.088ZM280.938 30.0675L280.385 30.9008C278.715 29.7928 277.025 28.7119 275.316 27.6587L275.841 26.8074C277.559 27.8664 279.258 28.9533 280.938 30.0675ZM270.64 23.7204C268.891 22.7211 267.123 21.7501 265.337 20.8081L264.871 21.6926C266.646 22.6293 268.404 23.5949 270.144 24.5887L270.64 23.7204ZM259.938 18.0746L259.502 18.9742C257.701 18.1 255.883 17.2549 254.049 16.4396L254.455 15.5258C256.299 16.3457 258.127 17.1955 259.938 18.0746ZM248.887 13.1615L248.511 14.0885C246.654 13.3365 244.781 12.6146 242.894 11.9234L243.238 10.9844C245.136 11.6795 247.019 12.4054 248.887 13.1615ZM237.527 9.00176L237.215 9.95183C235.314 9.32731 233.399 8.73361 231.47 8.17133L231.75 7.21129C233.689 7.77673 235.615 8.37375 237.527 9.00176ZM225.909 5.61488L225.662 6.58381C223.725 6.0893 221.775 5.6262 219.813 5.19511L220.028 4.21842C222.001 4.65192 223.961 5.11761 225.909 5.61488ZM214.1 3.01967L213.918 4.00302C211.949 3.63915 209.969 3.30733 207.978 3.00812L208.127 2.01922C210.129 2.3201 212.12 2.65377 214.1 3.01967ZM202.137 1.22101L202.021 2.21431C200.036 1.98342 198.041 1.78482 196.036 1.61906L196.119 0.622466C198.134 0.789139 200.141 0.988835 202.137 1.22101ZM190.073 0.223435L190.023 1.22222C188.031 1.12384 186.029 1.05787 184.02 1.02482L184.036 0.0249548C186.057 0.0581856 188.069 0.124519 190.073 0.223435ZM181 0C179.986 0 178.974 0.00834037 177.964 0.0249563L177.98 1.02482C178.985 1.0083 179.991 1 181 1V0ZM171.927 0.223439C169.903 0.323372 167.887 0.456562 165.881 0.622474L165.963 1.61907C167.959 1.45407 169.963 1.32161 171.976 1.22222L171.927 0.223439ZM159.863 1.22102L159.979 2.21433C157.983 2.44647 155.997 2.71125 154.022 3.00813L153.873 2.01924C155.859 1.7207 157.856 1.45445 159.863 1.22102ZM147.9 3.01969L148.081 4.00304C146.105 4.3683 144.14 4.76586 142.186 5.19513L141.972 4.21844C143.936 3.78676 145.912 3.38699 147.9 3.01969ZM136.091 5.6149L136.338 6.58383C134.389 7.08139 132.453 7.61076 130.53 8.17135L130.25 7.21132C132.184 6.64759 134.131 6.11525 136.091 5.6149ZM124.473 9.00179L124.785 9.95185C122.878 10.5782 120.985 11.2357 119.106 11.9235L118.762 10.9844C120.651 10.2928 122.555 9.63169 124.473 9.00179ZM113.113 13.1616L113.489 14.0885C111.627 14.8421 109.781 15.626 107.951 16.4396L107.545 15.5258C109.385 14.7077 111.241 13.9194 113.113 13.1616ZM102.062 18.0746L102.498 18.9742C100.692 19.8512 98.9017 20.7575 97.1293 21.6926L96.6627 20.8081C98.445 19.8679 100.245 18.9565 102.062 18.0746ZM91.3597 23.7204C89.6076 24.7212 87.8737 25.7504 86.1589 26.8074L86.6836 27.6587C88.389 26.6075 90.1132 25.584 91.8557 24.5887L91.3597 23.7204ZM81.0624 30.0676L81.6153 30.9008C79.9429 32.0104 78.2902 33.1471 76.6577 34.3104L76.0774 33.496C77.7189 32.3263 79.3808 31.1832 81.0624 30.0676ZM71.2104 37.088L71.8175 37.8826C70.2234 39.1006 68.6502 40.3446 67.0986 41.6141L66.4653 40.8401C68.0255 39.5636 69.6074 38.3127 71.2104 37.088ZM61.8471 44.7484L62.5057 45.5009C60.9963 46.822 59.5092 48.1678 58.045 49.5378L57.3618 48.8076C58.8341 47.43 60.3294 46.0768 61.8471 44.7484ZM53.0137 53.0137C51.5878 54.4396 50.1855 55.8892 48.8076 57.3618L49.5378 58.045C50.9082 56.5805 52.3027 55.1389 53.7208 53.7208L53.0137 53.0137ZM44.7484 61.8471L45.5009 62.5057C44.1803 64.0146 42.8845 65.5458 41.6141 67.0986L40.8401 66.4653C42.1175 64.904 43.4205 63.3643 44.7484 61.8471ZM37.0879 71.2104L37.8826 71.8175C36.6656 73.4102 35.4747 75.0238 34.3104 76.6577L33.496 76.0774C34.6668 74.4345 35.8643 72.8119 37.0879 71.2104ZM30.0675 81.0624L30.9008 81.6153C29.7928 83.2854 28.7119 84.975 27.6587 86.6836L26.8074 86.1589C27.8664 84.4408 28.9533 82.7418 30.0675 81.0624ZM23.7204 91.3598L24.5887 91.8557C23.5949 93.5956 22.6293 95.3537 21.6926 97.1294L20.8081 96.6627C21.7501 94.8772 22.7211 93.1094 23.7204 91.3598ZM18.0746 102.062L18.9742 102.498C18.1 104.299 17.2549 106.117 16.4396 107.951L15.5258 107.545C16.3457 105.701 17.1955 103.873 18.0746 102.062ZM13.1615 113.113L14.0885 113.489C13.3365 115.346 12.6146 117.219 11.9234 119.106L10.9844 118.762C11.6794 116.864 12.4054 114.981 13.1615 113.113ZM9.00176 124.473L9.95183 124.785C9.32731 126.686 8.73361 128.601 8.17133 130.53L7.21129 130.25C7.77672 128.311 8.37375 126.385 9.00176 124.473ZM5.61488 136.091L6.58381 136.338C6.0893 138.275 5.6262 140.225 5.19511 142.187L4.21841 141.972C4.65192 139.999 5.1176 138.039 5.61488 136.091ZM3.01967 147.9L4.00302 148.082C3.63915 150.051 3.30733 152.031 3.00812 154.022L2.01922 153.873C2.3201 151.871 2.65377 149.88 3.01967 147.9ZM1.22101 159.863L2.21431 159.979C1.98342 161.964 1.78482 163.959 1.61906 165.964L0.622466 165.881C0.789139 163.866 0.988835 161.859 1.22101 159.863ZM0.223435 171.927L1.22222 171.977C1.12384 173.969 1.05787 175.971 1.02482 177.98L0.0249547 177.964C0.0581856 175.943 0.124518 173.931 0.223435 171.927Z" fill="black"/>
<path d="M352 77L353.7 87.3183C355.22 96.5471 362.453 103.78 371.682 105.3L382 107L371.682 108.7C362.453 110.22 355.22 117.453 353.7 126.682L352 137L350.3 126.682C348.78 117.453 341.547 110.22 332.318 108.7L322 107L332.318 105.3C341.547 103.78 348.78 96.5471 350.3 87.3183L352 77Z" fill="white"/>
</svg>
