<svg width="24" height="24" viewBox="0 0 24 24" fill="none" xmlns="http://www.w3.org/2000/svg">
<g clip-path="url(#clip0_5_276)">
<path d="M23.987 11.9999C23.9861 11.6594 23.9131 11.3229 23.7728 11.0127C23.6325 10.7024 23.4281 10.4254 23.173 10.1999L11.994 0.360897C11.7053 0.124506 11.336 0.00945367 10.9641 0.0399875C10.5921 0.0705213 10.2466 0.244256 10.0002 0.524577C9.75386 0.804899 9.62596 1.16991 9.64346 1.54269C9.66096 1.91546 9.82249 2.26689 10.094 2.5229L18.731 10.1229C18.7689 10.1565 18.7957 10.2008 18.8078 10.25C18.82 10.2991 18.8169 10.3508 18.799 10.3982C18.7811 10.4456 18.7492 10.4864 18.7076 10.5153C18.666 10.5442 18.6167 10.5597 18.566 10.5599H1.45202C1.07011 10.5599 0.703843 10.7116 0.43379 10.9817C0.163738 11.2517 0.0120239 11.618 0.0120239 11.9999C0.0120239 12.3818 0.163738 12.7481 0.43379 13.0181C0.703843 13.2882 1.07011 13.4399 1.45202 13.4399H18.563C18.6136 13.4404 18.6629 13.4562 18.7044 13.4852C18.7459 13.5142 18.7777 13.555 18.7955 13.6024C18.8133 13.6498 18.8164 13.7014 18.8044 13.7506C18.7924 13.7998 18.7657 13.8441 18.728 13.8779L10.091 21.4779C9.93997 21.5999 9.81516 21.7512 9.72408 21.9227C9.633 22.0942 9.57755 22.2823 9.56105 22.4758C9.54455 22.6692 9.56735 22.864 9.62807 23.0485C9.68879 23.2329 9.78619 23.4031 9.9144 23.549C10.0426 23.6948 10.199 23.8132 10.3741 23.897C10.5493 23.9808 10.7395 24.0284 10.9335 24.0368C11.1275 24.0452 11.3212 24.0143 11.5029 23.9459C11.6847 23.8775 11.8507 23.7731 11.991 23.6389L23.172 13.7999C23.4274 13.5745 23.6321 13.2976 23.7726 12.9873C23.913 12.677 23.9861 12.3405 23.987 11.9999Z" fill="#FF4066"/>
</g>
<defs>
<clipPath id="clip0_5_276">
<rect width="24" height="24" fill="white"/>
</clipPath>
</defs>
</svg>
