<svg xmlns="http://www.w3.org/2000/svg" xmlns:xlink="http://www.w3.org/1999/xlink" width="50" zoomAndPan="magnify" viewBox="0 0 37.5 37.499999" height="50" preserveAspectRatio="xMidYMid meet" version="1.0"><defs><clipPath id="id1"><path d="M 0 6.628906 L 37.007812 6.628906 L 37.007812 21 L 0 21 Z M 0 6.628906 " clip-rule="nonzero"/></clipPath><clipPath id="id2"><path d="M 0 22 L 37.007812 22 L 37.007812 30.460938 L 0 30.460938 Z M 0 22 " clip-rule="nonzero"/></clipPath><clipPath id="id3"><path d="M 1 6.628906 L 4 6.628906 L 4 21 L 1 21 Z M 1 6.628906 " clip-rule="nonzero"/></clipPath></defs><g clip-path="url(#id1)"><path fill="rgb(0%, 0%, 0%)" d="M 28.1875 6.652344 L 0 6.652344 L 0 20.953125 L 15.652344 20.953125 L 15.652344 15.910156 L 18.996094 15.910156 C 20.414062 15.910156 21.890625 16.640625 21.890625 18.433594 L 21.890625 20.957031 L 37.199219 20.957031 C 37.199219 17.144531 35.328125 15.125 31.1875 14.214844 C 32.777344 14.046875 34.308594 13.992188 35.5 13.039062 C 36.691406 12.089844 37.371094 9.851562 35.226562 8.058594 C 33.6875 6.820312 31.246094 6.652344 28.1875 6.652344 Z M 20.132812 12.429688 L 15.585938 12.429688 L 15.585938 10.300781 L 20.074219 10.300781 C 20.605469 10.269531 21.128906 10.425781 21.550781 10.746094 C 21.710938 10.910156 21.804688 11.132812 21.804688 11.363281 C 21.804688 11.59375 21.710938 11.816406 21.550781 11.980469 C 21.15625 12.308594 20.644531 12.472656 20.132812 12.429688 " fill-opacity="1" fill-rule="nonzero"/></g><g clip-path="url(#id2)"><path fill="rgb(0%, 0%, 0%)" d="M 37.199219 22.132812 L 0 22.132812 L 0 30.429688 L 37.199219 30.429688 Z M 37.199219 22.132812 " fill-opacity="1" fill-rule="nonzero"/></g><path fill="rgb(0%, 0%, 0%)" d="M 32.4375 28.242188 C 32.675781 28.25 32.914062 28.207031 33.140625 28.121094 C 33.363281 28.035156 33.566406 27.90625 33.738281 27.738281 C 33.914062 27.570312 34.054688 27.371094 34.152344 27.148438 C 34.25 26.929688 34.304688 26.691406 34.308594 26.449219 C 34.300781 25.929688 34.097656 25.429688 33.738281 25.050781 C 33.574219 24.867188 33.375 24.722656 33.148438 24.625 C 32.925781 24.53125 32.679688 24.480469 32.4375 24.488281 C 31.945312 24.507812 31.480469 24.707031 31.132812 25.050781 C 30.957031 25.214844 30.816406 25.414062 30.71875 25.636719 C 30.621094 25.859375 30.570312 26.097656 30.5625 26.335938 C 30.570312 26.859375 30.773438 27.355469 31.132812 27.738281 C 31.304688 27.90625 31.507812 28.035156 31.730469 28.121094 C 31.957031 28.207031 32.195312 28.25 32.4375 28.242188 Z M 35.496094 26.335938 C 35.503906 26.757812 35.425781 27.179688 35.269531 27.570312 C 35.128906 27.925781 34.917969 28.253906 34.644531 28.523438 C 34.351562 28.8125 34.003906 29.042969 33.625 29.199219 C 33.242188 29.332031 32.839844 29.410156 32.4375 29.425781 C 32.089844 29.421875 31.746094 29.367188 31.417969 29.253906 C 31.085938 29.144531 30.777344 28.972656 30.507812 28.75 C 30.132812 28.476562 29.839844 28.109375 29.65625 27.6875 C 29.472656 27.28125 29.378906 26.839844 29.371094 26.398438 C 29.363281 25.992188 29.441406 25.59375 29.597656 25.222656 C 29.738281 24.851562 29.972656 24.519531 30.28125 24.265625 C 30.71875 23.832031 31.273438 23.539062 31.882812 23.417969 C 32.488281 23.296875 33.117188 23.359375 33.6875 23.59375 C 34.421875 23.886719 35.007812 24.449219 35.332031 25.160156 C 35.445312 25.542969 35.503906 25.941406 35.503906 26.335938 Z M 24.214844 29.199219 L 24.214844 23.421875 L 25.804688 23.421875 C 26.164062 23.425781 26.523438 23.464844 26.878906 23.535156 C 27.203125 23.59375 27.503906 23.75 27.730469 23.984375 C 28.082031 24.222656 28.359375 24.554688 28.527344 24.941406 C 28.726562 25.363281 28.839844 25.820312 28.867188 26.285156 C 28.839844 26.769531 28.726562 27.242188 28.527344 27.6875 C 28.34375 28.078125 28.074219 28.425781 27.730469 28.695312 C 27.484375 28.851562 27.214844 28.976562 26.9375 29.066406 C 26.582031 29.132812 26.21875 29.167969 25.859375 29.179688 Z M 25.40625 28.136719 L 26.085938 28.136719 C 26.488281 28.109375 26.863281 27.949219 27.164062 27.6875 C 27.527344 27.308594 27.730469 26.808594 27.730469 26.285156 C 27.730469 26.035156 27.683594 25.785156 27.585938 25.554688 C 27.488281 25.324219 27.34375 25.117188 27.164062 24.941406 C 27.023438 24.796875 26.859375 24.679688 26.671875 24.605469 C 26.488281 24.527344 26.289062 24.488281 26.085938 24.492188 L 25.40625 24.492188 Z M 13.4375 29.199219 L 15.765625 23.367188 L 16.953125 23.367188 L 19.167969 29.199219 L 17.921875 29.199219 L 17.425781 28.019531 L 15.195312 28.019531 L 14.742188 29.195312 Z M 17.125 27.125 L 16.328125 24.9375 L 15.53125 27.125 Z M 12.984375 24.980469 C 12.773438 24.78125 12.523438 24.625 12.246094 24.53125 C 11.964844 24.390625 11.648438 24.332031 11.335938 24.363281 C 10.957031 24.394531 10.597656 24.554688 10.316406 24.8125 C 10.105469 24.992188 9.933594 25.214844 9.8125 25.46875 C 9.695312 25.71875 9.636719 25.992188 9.636719 26.269531 C 9.644531 26.71875 9.804688 27.148438 10.09375 27.496094 C 10.382812 27.84375 10.78125 28.082031 11.222656 28.175781 C 11.527344 28.214844 11.835938 28.195312 12.132812 28.121094 C 12.429688 28.007812 12.699219 27.835938 12.929688 27.613281 L 12.929688 28.902344 C 12.664062 29.046875 12.375 29.140625 12.074219 29.183594 C 11.777344 29.257812 11.46875 29.277344 11.167969 29.242188 C 10.402344 29.179688 9.6875 28.832031 9.171875 28.269531 C 8.65625 27.707031 8.375 26.972656 8.386719 26.214844 C 8.367188 25.804688 8.4375 25.398438 8.597656 25.019531 C 8.753906 24.644531 8.992188 24.304688 9.296875 24.027344 C 9.785156 23.515625 10.457031 23.214844 11.167969 23.183594 C 11.472656 23.132812 11.789062 23.171875 12.074219 23.296875 C 12.378906 23.351562 12.671875 23.464844 12.929688 23.632812 Z M 6.75 23.421875 L 7.953125 23.421875 L 7.953125 29.253906 L 6.75 29.253906 Z M 3.234375 26.046875 L 3.410156 26.046875 C 3.722656 26.082031 4.039062 26.023438 4.316406 25.875 C 4.414062 25.78125 4.488281 25.667969 4.539062 25.542969 C 4.585938 25.414062 4.609375 25.28125 4.601562 25.144531 C 4.609375 25.027344 4.585938 24.910156 4.539062 24.800781 C 4.488281 24.695312 4.414062 24.601562 4.316406 24.527344 C 4.035156 24.402344 3.71875 24.347656 3.410156 24.375 L 3.230469 24.375 Z M 20.699219 26.046875 L 20.871094 26.046875 C 21.183594 26.082031 21.5 26.023438 21.78125 25.875 C 21.875 25.78125 21.949219 25.667969 22 25.542969 C 22.050781 25.414062 22.070312 25.28125 22.0625 25.144531 C 22.070312 25.027344 22.050781 24.910156 22 24.800781 C 21.949219 24.695312 21.875 24.601562 21.78125 24.527344 C 21.496094 24.394531 21.183594 24.339844 20.871094 24.359375 L 20.699219 24.359375 Z M 6.351562 29.199219 L 4.875 29.199219 L 3.230469 26.730469 L 3.230469 29.199219 L 2.042969 29.199219 L 2.042969 23.421875 L 3.789062 23.421875 C 4.320312 23.402344 4.84375 23.53125 5.304688 23.796875 C 5.480469 23.949219 5.617188 24.140625 5.703125 24.355469 C 5.792969 24.570312 5.832031 24.800781 5.8125 25.03125 C 5.851562 25.40625 5.761719 25.785156 5.558594 26.105469 C 5.285156 26.441406 4.90625 26.679688 4.480469 26.78125 Z M 23.816406 29.199219 L 22.347656 29.199219 L 20.703125 26.730469 L 20.703125 29.199219 L 19.507812 29.199219 L 19.507812 23.421875 L 21.265625 23.421875 C 21.796875 23.402344 22.324219 23.53125 22.78125 23.796875 C 22.957031 23.949219 23.09375 24.140625 23.183594 24.355469 C 23.269531 24.570312 23.308594 24.800781 23.292969 25.03125 C 23.328125 25.410156 23.234375 25.789062 23.023438 26.105469 C 22.75 26.441406 22.371094 26.679688 21.945312 26.78125 Z M 23.816406 29.199219 " fill-opacity="1" fill-rule="nonzero"/><g clip-path="url(#id3)"><path fill="rgb(0%, 0%, 0%)" d="M 3.175781 6.652344 L 1.984375 6.652344 L 1.984375 20.953125 L 3.175781 20.953125 Z M 3.175781 6.652344 " fill-opacity="1" fill-rule="nonzero"/></g></svg>