<svg width="639" height="194" viewBox="0 0 639 194" fill="none" xmlns="http://www.w3.org/2000/svg">
<path fill-rule="evenodd" clip-rule="evenodd" d="M637.934 1.78591C637.65 2.07397 637.224 2.49696 636.657 3.03983L635.966 2.31755C636.526 1.7813 636.944 1.36486 637.223 1.08326C637.362 0.942463 637.465 0.835379 637.534 0.763886C637.569 0.72814 637.594 0.701293 637.611 0.683578L637.63 0.663886L637.634 0.659232L637.635 0.658214L638.365 1.34161L638.363 1.34391L638.357 1.34975L638.336 1.37182C638.318 1.39112 638.291 1.41956 638.255 1.4569C638.183 1.53158 638.076 1.64188 637.934 1.78591ZM637.635 0.658214C637.635 0.658194 637.635 0.658207 637.635 0.658214ZM632.96 6.4062C631.867 7.35882 630.608 8.42415 629.182 9.58313L628.552 8.80708C629.968 7.65556 631.219 6.59767 632.303 5.65241L632.96 6.4062ZM625.281 12.6548C624.042 13.6015 622.714 14.5894 621.296 15.6112L620.712 14.8C622.121 13.7837 623.442 12.8013 624.674 11.86L625.281 12.6548ZM234.714 16.5419C233.069 16.543 231.434 16.5632 229.808 16.6023L229.784 15.6026C231.418 15.5633 233.061 15.543 234.713 15.5419L234.714 16.5419ZM244.655 16.7682C242.986 16.6914 241.325 16.6344 239.673 16.5969L239.696 15.5971C241.355 15.6349 243.024 15.6921 244.701 15.7693L244.655 16.7682ZM224.893 16.7787C223.227 16.8583 221.571 16.9577 219.924 17.0764L219.852 16.079C221.507 15.9597 223.171 15.8599 224.845 15.7799L224.893 16.7787ZM254.433 17.4378C252.787 17.2883 251.149 17.158 249.519 17.0465L249.587 16.0488C251.224 16.1608 252.87 16.2917 254.523 16.4419L254.433 17.4378ZM215.012 17.49C213.384 17.6469 211.766 17.8226 210.157 18.0168L210.037 17.024C211.654 16.8289 213.28 16.6522 214.916 16.4946L215.012 17.49ZM264.291 18.552C262.651 18.3305 261.02 18.128 259.396 17.9442L259.508 16.9506C261.139 17.1352 262.778 17.3386 264.425 17.561L264.291 18.552ZM617.226 18.4656C615.902 19.3697 614.514 20.293 613.063 21.2311L612.52 20.3914C613.964 19.4579 615.345 18.5391 616.663 17.6396L617.226 18.4656ZM205.214 18.6753C203.577 18.9141 201.949 19.172 200.332 19.4484L200.163 18.4627C201.789 18.1849 203.424 17.9257 205.07 17.6858L205.214 18.6753ZM274.004 20.0719C272.37 19.7815 270.744 19.5098 269.125 19.2566L269.279 18.2686C270.905 18.5229 272.538 18.7957 274.179 19.0874L274.004 20.0719ZM195.51 20.3331C193.882 20.6521 192.266 20.99 190.659 21.3461L190.443 20.3698C192.057 20.0119 193.682 19.6724 195.317 19.3517L195.51 20.3331ZM283.721 22.0034C282.117 21.651 280.519 21.3166 278.929 21L279.124 20.0192C280.721 20.3371 282.325 20.6729 283.936 21.0267L283.721 22.0034ZM185.839 22.4768C184.243 22.8719 182.657 23.285 181.082 23.7155L180.819 22.7509C182.401 22.3182 183.995 21.9031 185.599 21.5061L185.839 22.4768ZM293.293 24.3002C291.684 23.8817 290.082 23.4812 288.487 23.0985L288.72 22.126C290.322 22.5102 291.93 22.9123 293.545 23.3324L293.293 24.3002ZM608.883 23.8649C607.521 24.7011 606.111 25.5455 604.653 26.3951L604.15 25.5312C605.601 24.6854 607.004 23.8449 608.36 23.0127L608.883 23.8649ZM176.334 25.0756C174.747 25.5511 173.171 26.0442 171.605 26.5545L171.295 25.6037C172.868 25.091 174.452 24.5955 176.047 24.1177L176.334 25.0756ZM302.841 26.9734C301.268 26.502 299.701 26.0477 298.141 25.6104L298.411 24.6475C299.977 25.0864 301.549 25.5424 303.128 26.0155L302.841 26.9734ZM166.943 28.136C165.388 28.6843 163.844 29.2494 162.311 29.8307L161.956 28.8957C163.496 28.3116 165.048 27.7438 166.611 27.1929L166.943 28.136ZM312.206 29.9603C310.633 29.4285 309.066 28.9139 307.505 28.4162L307.809 27.4635C309.375 27.963 310.948 28.4794 312.526 29.0129L312.206 29.9603ZM600.312 28.8606C598.901 29.6411 597.451 30.4237 595.961 31.2063L595.496 30.321C596.979 29.5418 598.423 28.7626 599.828 27.9856L600.312 28.8606ZM319.328 32.4693C318.532 32.1775 317.737 31.89 316.945 31.6069L317.281 30.6652C318.076 30.9492 318.874 31.2376 319.672 31.5304C320.463 31.8205 321.253 32.108 322.042 32.393L321.702 33.3334C320.912 33.0479 320.121 32.7599 319.328 32.4693ZM157.698 31.6419C156.172 32.2618 154.658 32.8977 153.155 33.549L152.757 32.6314C154.267 31.9771 155.789 31.3382 157.322 30.7154L157.698 31.6419ZM591.561 33.4578C590.095 34.1883 588.594 34.917 587.059 35.6421L586.632 34.7378C588.161 34.0158 589.655 33.2902 591.115 32.5628L591.561 33.4578ZM331.105 36.6386C329.55 36.1078 327.989 35.567 326.421 35.0161L326.753 34.0727C328.317 34.6226 329.876 35.1624 331.428 35.6923L331.105 36.6386ZM148.652 35.5608C147.148 36.2535 145.656 36.9614 144.175 37.684L143.737 36.7853C145.224 36.0595 146.723 35.3483 148.234 34.6525L148.652 35.5608ZM582.603 37.6909C581.101 38.3631 579.568 39.0307 578.004 39.6922L577.615 38.7713C579.172 38.1124 580.698 37.4476 582.194 36.7781L582.603 37.6909ZM340.417 39.7231C338.868 39.2259 337.313 38.7188 335.752 38.2016L336.067 37.2523C337.625 37.7685 339.177 38.2747 340.723 38.771L340.417 39.7231ZM139.769 39.8951C138.304 40.6504 136.851 41.4199 135.409 42.2029L134.932 41.3243C136.379 40.5378 137.839 39.7649 139.31 39.0063L139.769 39.8951ZM349.956 42.6849C348.38 42.2121 346.796 41.729 345.207 41.2354L345.503 40.2804C347.09 40.773 348.67 41.2552 350.244 41.727L349.956 42.6849ZM573.475 41.5557C571.946 42.1671 570.39 42.7719 568.807 43.3688L568.454 42.4331C570.031 41.8385 571.581 41.2362 573.104 40.6272L573.475 41.5557ZM359.378 45.4099C357.814 44.9743 356.244 44.5285 354.666 44.0722L354.944 43.1116C356.518 43.5669 358.086 44.0118 359.646 44.4465L359.378 45.4099ZM131.081 44.6148C129.651 45.4321 128.232 46.2626 126.826 47.1056L126.312 46.2479C127.724 45.4013 129.149 44.5673 130.585 43.7465L131.081 44.6148ZM564.202 45.0541C562.646 45.6065 561.066 46.1508 559.461 46.6859L559.145 45.7372C560.744 45.2042 562.318 44.662 563.867 44.1118L564.202 45.0541ZM369.028 47.9908C367.434 47.5823 365.833 47.1631 364.225 46.733L364.483 45.7669C366.088 46.1961 367.686 46.6144 369.276 47.0221L369.028 47.9908ZM554.802 48.1904C553.226 48.683 551.628 49.1663 550.007 49.6395L549.727 48.6795C551.341 48.2081 552.934 47.7267 554.503 47.236L554.802 48.1904ZM378.572 50.3301C376.984 49.9589 375.39 49.577 373.787 49.1842L374.025 48.2129C375.624 48.6049 377.216 48.986 378.8 49.3564L378.572 50.3301ZM122.619 49.6863C121.217 50.5662 119.827 51.4584 118.449 52.3621L117.901 51.526C119.284 50.6187 120.679 49.7228 122.087 48.8392L122.619 49.6863ZM545.287 50.9701C543.702 51.4016 542.095 51.8231 540.468 52.2338L540.223 51.2642C541.844 50.855 543.445 50.4351 545.025 50.0052L545.287 50.9701ZM388.302 52.4924C386.696 52.1543 385.082 51.8052 383.461 51.4449L383.678 50.4687C385.296 50.8282 386.906 51.1765 388.508 51.5138L388.302 52.4924ZM535.669 53.3991C534.078 53.7703 532.468 54.131 530.84 54.4805L530.63 53.5028C532.253 53.1545 533.857 52.7951 535.442 52.4253L535.669 53.3991ZM397.975 54.4142C396.357 54.112 394.731 53.7985 393.096 53.4735L393.291 52.4927C394.922 52.8169 396.544 53.1297 398.159 53.4312L397.975 54.4142ZM114.354 55.1071C112.992 56.0397 111.642 56.9832 110.305 57.9371L109.724 57.123C111.067 56.1655 112.422 55.2182 113.789 54.282L114.354 55.1071ZM407.75 56.1208C406.138 55.8592 404.518 55.5863 402.889 55.302L403.061 54.3168C404.686 54.6005 406.303 54.8727 407.91 55.1337L407.75 56.1208ZM525.954 55.4835C524.362 55.7956 522.753 56.0969 521.127 56.3867L520.952 55.4022C522.572 55.1134 524.176 54.8132 525.762 54.5022L525.954 55.4835ZM417.55 57.5882C415.901 57.3621 414.243 57.1241 412.575 56.874L412.723 55.8851C414.387 56.1346 416.041 56.372 417.685 56.5975L417.55 57.5882ZM516.197 57.2212C514.592 57.4786 512.971 57.7247 511.334 57.959L511.193 56.9691C512.824 56.7356 514.439 56.4903 516.038 56.2338L516.197 57.2212ZM427.329 58.8041C425.718 58.6246 424.098 58.4337 422.468 58.2311L422.591 57.2387C424.217 57.4408 425.833 57.6312 427.44 57.8102L427.329 58.8041ZM506.427 58.6196C504.788 58.8263 503.133 59.0212 501.463 59.2036L501.354 58.2096C503.019 58.0277 504.668 57.8335 506.302 57.6274L506.427 58.6196ZM437.243 59.7767C435.6 59.6375 433.946 59.4864 432.282 59.3231L432.38 58.3279C434.039 58.4908 435.689 58.6415 437.328 58.7803L437.243 59.7767ZM496.589 59.6964C494.949 59.8488 493.296 59.9892 491.628 60.1173L491.551 59.1202C493.214 58.9926 494.862 58.8526 496.496 58.7007L496.589 59.6964ZM447.077 60.476C445.443 60.3822 443.798 60.2765 442.143 60.1586L442.214 59.1611C443.864 59.2786 445.504 59.3841 447.134 59.4776L447.077 60.476ZM486.679 60.4576C485.056 60.5563 483.419 60.6433 481.768 60.7182L481.723 59.7192C483.368 59.6446 485 59.5579 486.619 59.4594L486.679 60.4576ZM456.987 60.9059C455.358 60.8583 453.717 60.7989 452.065 60.7274L452.109 59.7283C453.756 59.7997 455.392 59.8589 457.016 59.9063L456.987 60.9059ZM476.777 60.9056C475.145 60.9543 473.5 60.9911 471.842 61.0156L471.827 60.0157C473.48 59.9913 475.12 59.9546 476.747 59.9061L476.777 60.9056ZM466.916 61.0517C465.261 61.0517 463.595 61.0394 461.916 61.0145L461.931 60.0146C463.605 60.0394 465.266 60.0517 466.916 60.0517L466.916 61.0517ZM106.3 60.852C104.977 61.8336 103.668 62.825 102.371 63.8254L101.76 63.0336C103.062 62.0295 104.376 61.0344 105.704 60.0491L106.3 60.852ZM98.4811 66.8827C97.1889 67.9174 95.9097 68.9608 94.6436 70.012L94.0048 69.2426C95.2754 68.1877 96.5591 67.1406 97.8561 66.1021L98.4811 66.8827ZM90.8845 73.1885C89.627 74.2698 88.3829 75.3584 87.1523 76.4536L86.4875 75.7065C87.7223 74.6077 88.9706 73.5153 90.2325 72.4303L90.8845 73.1885ZM83.484 79.7733C82.2748 80.8859 81.0791 82.0044 79.897 83.1278L79.2081 82.403C80.3941 81.2759 81.5936 80.1537 82.8069 79.0374L83.484 79.7733ZM76.317 86.5853C75.137 87.7433 73.9711 88.9056 72.8194 90.0716L72.1079 89.3688C73.2633 88.1992 74.4328 87.0332 75.6166 85.8716L76.317 86.5853ZM69.3848 93.6017C68.2319 94.8047 67.0939 96.0106 65.9708 97.2184L65.2385 96.5374C66.365 95.326 67.5064 94.1165 68.6628 92.9098L69.3848 93.6017ZM62.6459 100.847C61.5322 102.08 60.4339 103.314 59.3509 104.548L58.5992 103.889C59.6853 102.651 60.7868 101.413 61.9037 100.176L62.6459 100.847ZM56.1086 108.297C55.0428 109.547 53.9928 110.796 52.9586 112.043L52.1889 111.404C53.226 110.154 54.2789 108.902 55.3477 107.648L56.1086 108.297ZM49.793 115.914C48.7548 117.201 47.7334 118.486 46.7289 119.766L45.9422 119.148C46.9494 117.865 47.9735 116.577 49.0146 115.286L49.793 115.914ZM43.6964 123.683C42.6833 125.01 41.6886 126.33 40.7124 127.644L39.9098 127.047C40.8886 125.731 41.8859 124.406 42.9016 123.076L43.6964 123.683ZM37.8141 131.596C36.825 132.962 35.8563 134.32 34.9079 135.666L34.0904 135.09C35.0412 133.74 36.0124 132.38 37.004 131.009L37.8141 131.596ZM32.1238 139.671C31.1637 141.07 30.2263 142.456 29.3116 143.826L28.4799 143.271C29.3969 141.897 30.3367 140.508 31.2992 139.105L32.1238 139.671ZM26.6216 147.909C25.6952 149.334 24.7946 150.739 23.9198 152.123L23.0746 151.588C23.9517 150.201 24.8545 148.793 25.7832 147.364L26.6216 147.909ZM21.3352 156.266C20.437 157.725 19.5695 159.156 18.7326 160.556L17.8743 160.042C18.7134 158.639 19.5831 157.205 20.4836 155.742L21.3352 156.266ZM16.2733 164.726C15.3978 166.232 14.5614 167.694 13.764 169.108L12.8929 168.617C13.6924 167.199 14.531 165.733 15.4087 164.223L16.2733 164.726ZM11.3683 173.423C10.5523 174.916 9.78704 176.341 9.07231 177.693L8.1883 177.226C8.90511 175.87 9.67256 174.441 10.4908 172.943L11.3683 173.423ZM6.75909 182.148C5.92283 183.79 5.18592 185.273 4.54809 186.58L3.64937 186.141C4.28963 184.829 5.02909 183.341 5.86804 181.694L6.75909 182.148ZM1.45946 193.197L0.999988 193C0.540514 192.803 0.54052 192.803 0.540527 192.803L0.544591 192.793L0.556217 192.766L0.602128 192.661C0.64281 192.567 0.703644 192.429 0.784657 192.247C0.946682 191.882 1.18942 191.342 1.51309 190.638L2.4215 191.056C2.09974 191.756 1.85883 192.292 1.69856 192.652C1.61842 192.833 1.55845 192.969 1.51861 193.061L1.47394 193.163L1.46025 193.195L1.45946 193.197Z" fill="#FF4066"/>
</svg>
